<?xml version="1.0" encoding="UTF-8"?>
<!DOCTYPE svg PUBLIC "-//W3C//DTD SVG 1.1//EN" "http://www.w3.org/Graphics/SVG/1.1/DTD/svg11.dtd">
<svg xmlns="http://www.w3.org/2000/svg" version="1.1" width="500px" height="1500px" style="shape-rendering:geometricPrecision; text-rendering:geometricPrecision; image-rendering:optimizeQuality; fill-rule:evenodd; clip-rule:evenodd" xmlns:xlink="http://www.w3.org/1999/xlink">
<g><path style="opacity:0.943" fill="#68d371" d="M -0.5,327.5 C -0.5,313.833 -0.5,300.167 -0.5,286.5C 3.01799,282.3 7.35132,281.467 12.5,284C 13.1258,284.75 13.6258,285.584 14,286.5C 14.1866,298.546 14.6866,310.546 15.5,322.5C 64.1632,323.667 112.83,323.833 161.5,323C 162.165,292.237 162.498,261.404 162.5,230.5C 162.498,199.596 162.165,168.763 161.5,138C 113.167,137.333 64.8333,137.333 16.5,138C 16,138.5 15.5,139 15,139.5C 14.6667,179.5 14.3333,219.5 14,259.5C 9.17064,264.768 4.33731,264.768 -0.5,259.5C -0.5,217.5 -0.5,175.5 -0.5,133.5C 1.01922,130.979 2.68589,128.479 4.5,126C 6.88772,124.139 9.55438,122.806 12.5,122C 30.4969,121.5 48.4969,121.333 66.5,121.5C 66.3334,99.8308 66.5,78.1641 67,56.5C 69.2718,49.8938 73.7718,45.7271 80.5,44C 198.167,43.3333 315.833,43.3333 433.5,44C 439.87,45.4356 444.037,49.2689 446,55.5C 446.333,74.8333 446.667,94.1667 447,113.5C 450.828,115.329 453.161,118.329 454,122.5C 454.667,136.167 454.667,149.833 454,163.5C 452.895,168.206 450.062,171.373 445.5,173C 430.833,173.667 416.167,173.667 401.5,173C 397.132,170.774 394.298,167.274 393,162.5C 392.333,149.167 392.333,135.833 393,122.5C 394.138,118.552 396.471,115.552 400,113.5C 400.5,105.173 400.666,96.84 400.5,88.5C 363.5,88.5 326.5,88.5 289.5,88.5C 289.334,96.84 289.5,105.173 290,113.5C 293.529,115.552 295.862,118.552 297,122.5C 297.667,135.833 297.667,149.167 297,162.5C 295.702,167.274 292.868,170.774 288.5,173C 273.833,173.667 259.167,173.667 244.5,173C 239.938,171.373 237.105,168.206 236,163.5C 235.333,149.833 235.333,136.167 236,122.5C 236.839,118.329 239.172,115.329 243,113.5C 243.5,105.173 243.666,96.84 243.5,88.5C 199.5,88.5 155.5,88.5 111.5,88.5C 111.5,99.5 111.5,110.5 111.5,121.5C 129.17,121.333 146.836,121.5 164.5,122C 171.667,123.833 176.167,128.333 178,135.5C 178.667,198.833 178.667,262.167 178,325.5C 176.237,332.262 172.07,336.762 165.5,339C 151.171,339.5 136.837,339.667 122.5,339.5C 122.667,378.835 122.5,418.168 122,457.5C 120.833,462.667 117.667,465.833 112.5,467C 96.5,467.667 80.5,467.667 64.5,467C 60.7251,465.558 57.8917,463.058 56,459.5C 55.5,419.501 55.3333,379.501 55.5,339.5C 41.1628,339.667 26.8295,339.5 12.5,339C 6.05784,337.383 1.72451,333.55 -0.5,327.5 Z M 83.5,59.5 C 198.834,59.3333 314.167,59.5 429.5,60C 430.492,77.4231 430.825,94.9231 430.5,112.5C 425.833,112.5 421.167,112.5 416.5,112.5C 416.666,102.494 416.5,92.4944 416,82.5C 414.932,77.7647 412.099,74.5981 407.5,73C 365.833,72.3333 324.167,72.3333 282.5,73C 277.449,74.7167 274.615,78.2167 274,83.5C 273.5,93.1609 273.334,102.828 273.5,112.5C 268.833,112.5 264.167,112.5 259.5,112.5C 259.879,101.445 259.379,90.4451 258,79.5C 256.437,76.2716 253.937,74.1049 250.5,73C 201.5,72.3333 152.5,72.3333 103.5,73C 99.6667,74.1667 97.1667,76.6667 96,80.5C 95.5001,94.1626 95.3334,107.829 95.5,121.5C 91.1667,121.5 86.8333,121.5 82.5,121.5C 82.1789,100.758 82.5122,80.091 83.5,59.5 Z M 251.5,127.5 C 261.5,127.5 271.5,127.5 281.5,127.5C 281.5,137.5 281.5,147.5 281.5,157.5C 271.5,157.5 261.5,157.5 251.5,157.5C 251.5,147.5 251.5,137.5 251.5,127.5 Z M 408.5,127.5 C 418.5,127.5 428.5,127.5 438.5,127.5C 438.5,137.5 438.5,147.5 438.5,157.5C 428.5,157.5 418.5,157.5 408.5,157.5C 408.5,147.5 408.5,137.5 408.5,127.5 Z M 83.5,174.5 C 109.946,174.712 124.946,187.878 128.5,214C 125.045,241.055 109.712,254.055 82.5,253C 58.7044,246.579 47.8711,231.079 50,206.5C 54.8691,189.129 66.0357,178.462 83.5,174.5 Z M 71.5,339.5 C 83.1667,339.5 94.8333,339.5 106.5,339.5C 106.5,376.833 106.5,414.167 106.5,451.5C 94.8333,451.5 83.1667,451.5 71.5,451.5C 71.5,414.167 71.5,376.833 71.5,339.5 Z"/></g>
<g><path style="opacity:0.927" fill="#68d371" d="M 82.5,158.5 C 119.503,158.824 140.169,177.324 144.5,214C 142.201,244.96 125.868,263.293 95.5,269C 62.2693,270.304 41.7693,254.804 34,222.5C 32.0847,187.288 48.2514,165.955 82.5,158.5 Z M 83.5,174.5 C 66.0357,178.462 54.8691,189.129 50,206.5C 47.8711,231.079 58.7044,246.579 82.5,253C 109.712,254.055 125.045,241.055 128.5,214C 124.946,187.878 109.946,174.712 83.5,174.5 Z"/></g>
<g><path style="opacity:0.903" fill="#68d371" d="M 237.5,187.5 C 245.614,186.121 249.447,189.454 249,197.5C 245.406,206.523 240.906,215.023 235.5,223C 226.211,225.29 222.378,221.79 224,212.5C 227.497,203.498 231.997,195.165 237.5,187.5 Z"/></g>
<g><path style="opacity:0.911" fill="#68d371" d="M 287.5,187.5 C 291.603,186.769 295.103,187.769 298,190.5C 301.667,197.833 305.333,205.167 309,212.5C 310.622,221.79 306.789,225.29 297.5,223C 292.365,215.235 287.865,207.068 284,198.5C 282.663,193.916 283.829,190.249 287.5,187.5 Z"/></g>
<g><path style="opacity:0.911" fill="#68d371" d="M 394.5,187.5 C 403.491,185.993 407.325,189.66 406,198.5C 402.135,207.068 397.635,215.235 392.5,223C 383.211,225.29 379.378,221.79 381,212.5C 385.004,203.821 389.504,195.487 394.5,187.5 Z"/></g>
<g><path style="opacity:0.898" fill="#68d371" d="M 444.5,187.5 C 448.257,187.071 451.757,187.737 455,189.5C 458.939,197.045 462.606,204.712 466,212.5C 467.622,221.79 463.789,225.29 454.5,223C 449.094,215.023 444.594,206.523 441,197.5C 440.182,193.469 441.349,190.136 444.5,187.5 Z"/></g>
<g><path style="opacity:0.91" fill="#68d371" d="M 85.5,188.5 C 89.8027,187.796 93.3027,189.13 96,192.5C 96.6667,200.833 96.6667,209.167 96,217.5C 94.661,220.094 92.4944,221.594 89.5,222C 83.5,222.667 77.5,222.667 71.5,222C 65.3469,220.535 63.1802,216.702 65,210.5C 65.8333,209.5 66.6667,208.5 67.5,207.5C 71.7649,206.561 76.0983,206.228 80.5,206.5C 80.3345,202.486 80.5012,198.486 81,194.5C 81.5985,191.746 83.0985,189.746 85.5,188.5 Z"/></g>
<g><path style="opacity:0.904" fill="#68d371" d="M 262.5,196.5 C 267.635,195.426 271.468,197.093 274,201.5C 274.667,210.167 274.667,218.833 274,227.5C 271.398,233.042 267.231,234.542 261.5,232C 260.299,231.097 259.465,229.931 259,228.5C 258.333,219.167 258.333,209.833 259,200.5C 260.376,199.295 261.542,197.962 262.5,196.5 Z"/></g>
<g><path style="opacity:0.904" fill="#68d371" d="M 420.5,196.5 C 424.909,195.618 428.409,196.952 431,200.5C 431.667,209.833 431.667,219.167 431,228.5C 427.418,233.85 422.918,234.684 417.5,231C 416.809,229.933 416.309,228.766 416,227.5C 415.333,218.833 415.333,210.167 416,201.5C 417.025,199.313 418.525,197.646 420.5,196.5 Z"/></g>
<g><path style="opacity:0.871" fill="#68d371" d="M 51.5,286.5 C 58.6843,285.084 63.3509,287.751 65.5,294.5C 63.3172,302.107 58.3172,304.607 50.5,302C 44.9385,296.353 45.2719,291.186 51.5,286.5 Z"/></g>
<g><path style="opacity:0.864" fill="#68d371" d="M 117.5,286.5 C 124.998,284.574 129.664,287.241 131.5,294.5C 129.698,301.906 125.031,304.406 117.5,302C 112.776,299.565 111.276,295.731 113,290.5C 114.397,288.93 115.897,287.596 117.5,286.5 Z"/></g>
<g><path style="opacity:0.933" fill="#68d371" d="M 511.5,424.5 C 511.5,434.833 511.5,445.167 511.5,455.5C 509.275,461.55 504.942,465.383 498.5,467C 423.418,467.994 348.418,467.66 273.5,466C 270.606,463.091 269.773,459.591 271,455.5C 272.214,453.951 273.714,452.785 275.5,452C 348.836,451.833 422.169,451.333 495.5,450.5C 496.833,443.5 496.833,436.5 495.5,429.5C 487.521,428.668 479.521,428.168 471.5,428C 467.131,426.733 463.297,424.567 460,421.5C 455.141,407.307 445.641,397.807 431.5,393C 417.265,390.542 405.432,394.708 396,405.5C 392.816,410.705 389.816,416.039 387,421.5C 383.896,424.933 380.063,427.1 375.5,428C 355.167,428.667 334.833,428.667 314.5,428C 309.937,427.1 306.104,424.933 303,421.5C 299.45,412.903 294.283,405.403 287.5,399C 260.466,386.016 241.299,393.516 230,421.5C 226.703,424.567 222.869,426.733 218.5,428C 210.507,428.5 202.507,428.666 194.5,428.5C 194.5,436.167 194.5,443.833 194.5,451.5C 211.837,451.333 229.17,451.5 246.5,452C 253.15,456.956 253.15,461.956 246.5,467C 228.167,467.667 209.833,467.667 191.5,467C 185.075,465.573 180.908,461.74 179,455.5C 178.333,445.167 178.333,434.833 179,424.5C 180.406,419.427 183.572,415.927 188.5,414C 197.807,412.89 207.14,412.057 216.5,411.5C 224.352,392.979 238.019,381.312 257.5,376.5C 258.474,374.257 258.808,371.924 258.5,369.5C 231.409,368.911 215.576,355.244 211,328.5C 210.333,321.5 210.333,314.5 211,307.5C 212.886,300.282 217.552,296.949 225,297.5C 242.768,299.46 256.602,307.794 266.5,322.5C 277.766,305.867 293.433,297.7 313.5,298C 318.644,300.121 321.478,303.954 322,309.5C 325.654,330.985 319.154,348.485 302.5,362C 293.917,367.312 284.583,369.812 274.5,369.5C 274.232,372.119 274.565,374.619 275.5,377C 294.949,381.114 308.283,392.448 315.5,411C 325.238,412.143 335.072,412.643 345,412.5C 354.928,412.643 364.762,412.143 374.5,411C 381.717,392.448 395.051,381.114 414.5,377C 415.435,374.619 415.768,372.119 415.5,369.5C 386.981,368.48 371.148,353.813 368,325.5C 367.212,318.444 367.545,311.444 369,304.5C 371.882,299.558 376.215,297.224 382,297.5C 399.744,299.424 413.578,307.758 423.5,322.5C 433.398,307.794 447.232,299.46 465,297.5C 472.448,296.949 477.114,300.282 479,307.5C 482.663,328.05 477.163,345.55 462.5,360C 453.346,366.884 443.013,370.05 431.5,369.5C 431.192,371.924 431.526,374.257 432.5,376.5C 451.981,381.312 465.648,392.979 473.5,411.5C 482.86,412.057 492.193,412.89 501.5,414C 506.443,416.106 509.776,419.606 511.5,424.5 Z M 226.5,313.5 C 246.356,319.368 257.023,332.701 258.5,353.5C 243.548,353.372 233.381,346.372 228,332.5C 226.743,326.231 226.243,319.898 226.5,313.5 Z M 304.5,313.5 C 309.036,330.995 303.036,343.828 286.5,352C 282.582,353.156 278.582,353.656 274.5,353.5C 275.81,333.509 285.81,320.176 304.5,313.5 Z M 383.5,313.5 C 403.675,319.166 414.342,332.5 415.5,353.5C 400.094,353.384 389.928,346.051 385,331.5C 383.838,325.555 383.338,319.555 383.5,313.5 Z M 461.5,313.5 C 466.301,331.078 460.301,343.911 443.5,352C 439.582,353.156 435.582,353.656 431.5,353.5C 432.854,333.502 442.854,320.169 461.5,313.5 Z"/></g>
</svg>
