<?xml version="1.0" encoding="UTF-8"?>
<!DOCTYPE svg PUBLIC "-//W3C//DTD SVG 1.1//EN" "http://www.w3.org/Graphics/SVG/1.1/DTD/svg11.dtd">
<svg xmlns="http://www.w3.org/2000/svg" version="1.1" width="500px" height="1500px" style="shape-rendering:geometricPrecision; align:center; text-rendering:geometricPrecision; image-rendering:optimizeQuality; fill-rule:evenodd; clip-rule:evenodd" xmlns:xlink="http://www.w3.org/1999/xlink">
<g><path style="opacity:0.951" fill="#68d371" d="M 245.5,-0.5 C 260.5,-0.5 275.5,-0.5 290.5,-0.5C 317.542,5.02866 340.376,18.0287 359,38.5C 362.617,49.2701 358.951,55.9367 348,58.5C 345.416,57.8963 342.916,57.0629 340.5,56C 304.486,20.3305 263.819,13.9971 218.5,37C 210.251,42.5785 202.584,48.9118 195.5,56C 186.889,60.0574 180.389,57.8907 176,49.5C 175.035,45.2176 175.702,41.2176 178,37.5C 196.671,17.9175 219.171,5.25082 245.5,-0.5 Z"/></g>
<g><path style="opacity:0.947" fill="#68d371" d="M 260.5,46.5 C 288.541,44.6613 310.708,54.9946 327,77.5C 327.591,91.9109 321.091,96.7442 307.5,92C 287.428,70.7518 264.762,67.4184 239.5,82C 235.167,85.6667 230.833,89.3333 226.5,93C 214.529,95.5959 208.696,90.7626 209,78.5C 217.604,64.5767 229.77,55.0767 245.5,50C 250.596,48.6404 255.596,47.4737 260.5,46.5 Z"/></g>
<g><path style="opacity:0.953" fill="#68d371" d="M 262.5,95.5 C 284.639,94.806 294.472,105.473 292,127.5C 285.254,143.087 273.754,148.254 257.5,143C 243.3,134.054 239.8,121.887 247,106.5C 250.962,101.023 256.129,97.3564 262.5,95.5 Z"/></g>
<g><path style="opacity:0.972" fill="#68d371" d="M 40.5,144.5 C 86.5012,144.333 132.501,144.5 178.5,145C 193.74,149.241 203.24,159.075 207,174.5C 207.667,252.167 207.667,329.833 207,407.5C 203.167,423.333 193.333,433.167 177.5,437C 132.167,437.667 86.8333,437.667 41.5,437C 25.2161,433.05 15.3827,422.883 12,406.5C 11.3333,329.5 11.3333,252.5 12,175.5C 15.4686,159.535 24.9686,149.201 40.5,144.5 Z M 45.5,169.5 C 88.168,169.333 130.835,169.5 173.5,170C 178.099,171.598 180.932,174.765 182,179.5C 182.667,253.833 182.667,328.167 182,402.5C 180.833,407.667 177.667,410.833 172.5,412C 130.5,412.667 88.5,412.667 46.5,412C 42.5013,411.332 39.668,409.165 38,405.5C 36.3487,330.869 36.0154,256.203 37,181.5C 37.3533,175.66 40.1866,171.66 45.5,169.5 Z"/></g>
<g><path style="opacity:0.953" fill="#68d371" d="M 385.5,144.5 C 390.121,143.993 394.454,144.826 398.5,147C 430.5,171 462.5,195 494.5,219C 496.378,220.543 497.878,222.376 499,224.5C 500.653,275.775 500.986,327.108 500,378.5C 498.99,382.843 496.49,386.01 492.5,388C 424.167,388.667 355.833,388.667 287.5,388C 283.942,386.108 281.442,383.275 280,379.5C 279.014,327.775 279.347,276.108 281,224.5C 282.122,222.376 283.622,220.543 285.5,219C 319.017,194.303 352.35,169.47 385.5,144.5 Z M 389.5,172.5 C 417.482,193.476 445.482,214.476 473.5,235.5C 474.5,278.161 474.833,320.828 474.5,363.5C 462.833,363.5 451.167,363.5 439.5,363.5C 439.667,334.498 439.5,305.498 439,276.5C 437.99,272.157 435.49,268.99 431.5,267C 403.833,266.333 376.167,266.333 348.5,267C 344.942,268.892 342.442,271.725 341,275.5C 340.5,304.831 340.333,334.165 340.5,363.5C 328.833,363.5 317.167,363.5 305.5,363.5C 305.167,320.828 305.5,278.161 306.5,235.5C 334.493,214.828 362.16,193.828 389.5,172.5 Z M 366.5,291.5 C 382.167,291.5 397.833,291.5 413.5,291.5C 413.5,315.5 413.5,339.5 413.5,363.5C 397.833,363.5 382.167,363.5 366.5,363.5C 366.5,339.5 366.5,315.5 366.5,291.5 Z"/></g>
<g><path style="opacity:0.918" fill="#68d371" d="M 96.5,192.5 C 105.173,192.334 113.84,192.5 122.5,193C 131.863,194.539 135.696,200.039 134,209.5C 132.402,214.099 129.235,216.932 124.5,218C 114.5,218.667 104.5,218.667 94.5,218C 86.8881,215.617 83.7214,210.45 85,202.5C 86.8078,196.7 90.6412,193.367 96.5,192.5 Z"/></g>
<g><path style="opacity:0.943" fill="#68d371" d="M 93.5,363.5 C 104.172,363.333 114.839,363.5 125.5,364C 135.372,369.421 137.039,376.754 130.5,386C 129.167,386.667 127.833,387.333 126.5,388C 115.167,388.667 103.833,388.667 92.5,388C 84.3847,383.316 82.5513,376.816 87,368.5C 88.9651,366.45 91.1318,364.783 93.5,363.5 Z"/></g>
<g><path style="opacity:0.97" fill="#68d371" d="M 385.5,412.5 C 393.089,411.045 398.589,413.712 402,420.5C 402.667,447.833 402.667,475.167 402,502.5C 400.833,506.333 398.333,508.833 394.5,510C 297.833,510.667 201.167,510.667 104.5,510C 100.056,507.889 97.5561,504.389 97,499.5C 96.3333,490.5 96.3333,481.5 97,472.5C 99.8099,462.012 106.31,458.846 116.5,463C 119.106,464.938 120.939,467.438 122,470.5C 122.499,475.489 122.666,480.489 122.5,485.5C 207.5,485.5 292.5,485.5 377.5,485.5C 377.333,463.831 377.5,442.164 378,420.5C 379.69,416.979 382.19,414.312 385.5,412.5 Z"/></g>
</svg>
