<?xml version="1.0" encoding="UTF-8"?>
<!DOCTYPE svg PUBLIC "-//W3C//DTD SVG 1.1//EN" "http://www.w3.org/Graphics/SVG/1.1/DTD/svg11.dtd">
<svg xmlns="http://www.w3.org/2000/svg" version="1.1" width="500px" height="1000px" style="shape-rendering:geometricPrecision; text-rendering:geometricPrecision; image-rendering:optimizeQuality; fill-rule:evenodd; clip-rule:evenodd" xmlns:xlink="http://www.w3.org/1999/xlink">
<g><path style="opacity:0.004" fill="#68d371" d="M 250.5,1.5 C 253.001,1.51092 253.168,2.17759 251,3.5C 250.536,2.90558 250.369,2.23891 250.5,1.5 Z"/></g>
<g><path style="opacity:0.004" fill="#68d371" d="M 245.5,4.5 C 246.833,5.16667 246.833,5.16667 245.5,4.5 Z"/></g>
<g><path style="opacity:0.944" fill="#68d371" d="M 274.5,44.5 C 280.986,41.7114 287.319,42.0447 293.5,45.5C 293.833,46.5 294.5,47.1667 295.5,47.5C 295.5,48.1667 295.833,48.5 296.5,48.5C 296.932,49.7095 297.599,50.7095 298.5,51.5C 300.517,58.7023 299.517,65.369 295.5,71.5C 294.833,71.5 294.5,71.8333 294.5,72.5C 293.833,72.5 293.5,72.8333 293.5,73.5C 290.165,74.9998 286.665,75.9998 283,76.5C 279.335,75.9998 275.835,74.9998 272.5,73.5C 271.5,71.8333 270.167,70.5 268.5,69.5C 262.69,68.5104 256.69,68.1771 250.5,68.5C 250.5,88.5 250.5,108.5 250.5,128.5C 261.219,128.81 271.885,128.477 282.5,127.5C 283.046,119.074 284.046,110.741 285.5,102.5C 288.211,98.7881 291.544,95.7881 295.5,93.5C 307.483,92.8939 319.483,92.2273 331.5,91.5C 331.863,90.8165 332.196,90.1499 332.5,89.5C 333.167,89.5 333.5,89.1667 333.5,88.5C 336.595,87.8813 336.929,86.8813 334.5,85.5C 340.893,83.0073 347.227,83.0073 353.5,85.5C 353.5,86.1667 353.833,86.5 354.5,86.5C 356.167,88.8333 358.167,90.8333 360.5,92.5C 360.263,93.791 360.596,94.791 361.5,95.5C 362.414,98.728 362.747,102.061 362.5,105.5C 361.836,106.648 361.669,107.981 362,109.5C 361.333,110.833 360.667,110.833 360,109.5C 358.961,110.244 358.461,111.244 358.5,112.5C 357.833,112.5 357.5,112.833 357.5,113.5C 354.996,114.584 352.663,115.917 350.5,117.5C 344.824,118.07 339.49,117.07 334.5,114.5C 334.5,113.833 334.167,113.5 333.5,113.5C 333.047,112.542 332.381,111.708 331.5,111C 321.833,110.333 312.167,110.333 302.5,111C 301.686,117.753 301.186,124.586 301,131.5C 300.64,133.421 299.806,135.088 298.5,136.5C 299.355,137.293 300.189,136.96 301,135.5C 301.684,136.784 301.517,137.951 300.5,139C 298.942,139.21 297.609,139.71 296.5,140.5C 295.833,140.5 295.5,140.833 295.5,141.5C 292.103,143.528 288.436,145.028 284.5,146C 273.172,146.5 261.838,146.667 250.5,146.5C 250.5,151.167 250.5,155.833 250.5,160.5C 295.835,160.667 341.168,160.5 386.5,160C 387.833,158.667 389.167,157.333 390.5,156C 389.423,155.53 388.423,155.697 387.5,156.5C 387.414,155.504 387.748,154.671 388.5,154C 392.392,153.581 396.058,152.748 399.5,151.5C 401.746,152.21 404.08,152.71 406.5,153C 408.095,155.102 410.095,156.602 412.5,157.5C 412.5,158.167 412.833,158.5 413.5,158.5C 417.434,163.951 418.434,169.951 416.5,176.5C 415.512,177.795 414.512,179.128 413.5,180.5C 412.167,181.167 411.167,182.167 410.5,183.5C 407.139,184.883 403.639,185.883 400,186.5C 396.715,185.794 393.548,184.794 390.5,183.5C 390.027,182.094 389.027,181.427 387.5,181.5C 387.672,180.508 387.338,179.842 386.5,179.5C 341.336,178.501 296.003,178.168 250.5,178.5C 250.5,187.833 250.5,197.167 250.5,206.5C 309.509,207.163 368.176,206.496 426.5,204.5C 427.167,204.5 427.5,204.167 427.5,203.5C 428.5,203.167 429.167,202.5 429.5,201.5C 431.027,201.573 432.027,200.906 432.5,199.5C 437.5,198.167 442.5,198.167 447.5,199.5C 449.45,201.549 451.45,202.883 453.5,203.5C 454.167,202.833 454.833,202.167 455.5,201.5C 455.833,201.833 456.167,202.167 456.5,202.5C 455.167,203.5 455.167,204.5 456.5,205.5C 455.833,205.833 455.167,206.167 454.5,206.5C 455.882,209.192 456.882,212.026 457.5,215C 456.639,218.137 455.973,221.303 455.5,224.5C 454.833,224.5 454.5,224.833 454.5,225.5C 452.833,226.5 451.5,227.833 450.5,229.5C 445.066,232.255 439.399,232.921 433.5,231.5C 431.795,229.808 429.795,228.475 427.5,227.5C 427.047,226.542 426.381,225.708 425.5,225C 367.168,224.5 308.834,224.333 250.5,224.5C 250.5,237.5 250.5,250.5 250.5,263.5C 266.833,263.5 283.167,263.5 299.5,263.5C 299.666,269.509 299.499,275.509 299,281.5C 298.586,281.957 298.086,282.291 297.5,282.5C 281.895,281.522 266.395,281.189 251,281.5C 250.5,292.828 250.333,304.162 250.5,315.5C 258.507,315.334 266.507,315.5 274.5,316C 276.854,316.847 279.188,317.68 281.5,318.5C 282.167,319.833 283.167,320.833 284.5,321.5C 284.5,322.167 284.833,322.5 285.5,322.5C 286.11,324.434 287.11,326.101 288.5,327.5C 289.105,339.309 289.772,350.975 290.5,362.5C 293.287,363.477 296.287,363.81 299.5,363.5C 299.81,369.758 299.476,375.924 298.5,382C 292.602,382.653 286.936,381.82 281.5,379.5C 280.71,378.599 279.71,377.932 278.5,377.5C 278.5,376.833 278.167,376.5 277.5,376.5C 277.068,375.29 276.401,374.29 275.5,373.5C 274.155,371.303 272.989,368.97 272,366.5C 271.444,368.595 270.944,368.762 270.5,367C 271.468,355.872 271.801,344.706 271.5,333.5C 264.5,333.5 257.5,333.5 250.5,333.5C 250.5,361.5 250.5,389.5 250.5,417.5C 266.837,417.667 283.17,417.5 299.5,417C 297.068,415.913 297.402,415.413 300.5,415.5C 300.5,416.5 300.5,417.5 300.5,418.5C 299.511,423.975 299.178,429.642 299.5,435.5C 246.832,435.667 194.166,435.5 141.5,435C 135.325,433.663 129.325,431.83 123.5,429.5C 120.961,428.069 118.628,426.403 116.5,424.5C 115.738,422.738 114.404,421.738 112.5,421.5C 111.5,419.833 110.167,418.5 108.5,417.5C 108.5,416.833 108.167,416.5 107.5,416.5C 107.5,415.833 107.167,415.5 106.5,415.5C 106.5,414.833 106.167,414.5 105.5,414.5C 105.5,413.833 105.167,413.5 104.5,413.5C 104.167,410.833 103.833,410.833 103.5,413.5C 100.04,412.74 99.7068,411.24 102.5,409C 101.601,407.348 100.601,405.848 99.5,404.5C 99.3204,401.886 97.9871,399.553 95.5,397.5C 94.6052,392.858 93.7719,388.191 93,383.5C 92.5,331.501 92.3333,279.501 92.5,227.5C 71.1667,227.5 49.8333,227.5 28.5,227.5C 28.2148,225.712 28.5481,224.045 29.5,222.5C 31.1366,223.444 32.1366,222.777 32.5,220.5C 33.8333,219.833 34.8333,218.833 35.5,217.5C 36.1667,217.5 36.5,217.167 36.5,216.5C 41.8333,213.167 46.1667,208.833 49.5,203.5C 50.1667,203.5 50.5,203.167 50.5,202.5C 51.8333,201.833 52.8333,200.833 53.5,199.5C 54.8333,198.833 55.8333,197.833 56.5,196.5C 57.1667,196.5 57.5,196.167 57.5,195.5C 61.8119,193.188 65.1452,189.855 67.5,185.5C 68.8333,184.833 69.8333,183.833 70.5,182.5C 71.8333,181.833 72.8333,180.833 73.5,179.5C 74.1667,179.5 74.5,179.167 74.5,178.5C 75.8333,177.833 76.8333,176.833 77.5,175.5C 80.8114,174.189 83.1448,171.855 84.5,168.5C 85.8333,167.833 86.8333,166.833 87.5,165.5C 88.1667,165.5 88.5,165.167 88.5,164.5C 89.5,164.167 90.1667,163.5 90.5,162.5C 92.5,161.167 94.1667,159.5 95.5,157.5C 100.057,153.447 104.557,149.113 109,144.5C 109.5,116.502 109.667,88.502 109.5,60.5C 105.003,61.0555 100.836,60.3888 97,58.5C 96.3333,51.1667 96.3333,43.8333 97,36.5C 97.7172,35.9558 98.2172,35.2891 98.5,34.5C 127.502,34.3334 156.502,34.5 185.5,35C 187.452,43.23 188.118,51.73 187.5,60.5C 183.167,60.5 178.833,60.5 174.5,60.5C 174.334,66.5092 174.501,72.5092 175,78.5C 176.045,77.6266 176.878,76.6266 177.5,75.5C 180.587,73.5795 182.754,70.9128 184,67.5C 186.662,67.0699 188.829,65.4033 190.5,62.5C 191.167,62.5 191.5,62.1667 191.5,61.5C 196.588,57.0784 201.255,52.4118 205.5,47.5C 206.833,46.8333 207.833,45.8333 208.5,44.5C 221.785,31.8814 234.785,18.8814 247.5,5.5C 248.325,4.61432 249.325,4.28099 250.5,4.5C 250.5,19.5 250.5,34.5 250.5,49.5C 256.842,49.6662 263.175,49.4995 269.5,49C 271.063,47.264 272.73,45.764 274.5,44.5 Z M 387.5,181.5 C 389.027,181.427 390.027,182.094 390.5,183.5C 388.973,183.573 387.973,182.906 387.5,181.5 Z M 432.5,199.5 C 432.027,200.906 431.027,201.573 429.5,201.5C 429.973,200.094 430.973,199.427 432.5,199.5 Z M 146.5,244.5 C 155.756,245.307 165.09,245.807 174.5,246C 173.167,254.333 173.167,262.667 174.5,271C 165.173,271.5 155.839,271.666 146.5,271.5C 146.5,262.5 146.5,253.5 146.5,244.5 Z M 187.5,245.5 C 196.5,245.5 205.5,245.5 214.5,245.5C 214.5,254.167 214.5,262.833 214.5,271.5C 205.5,271.5 196.5,271.5 187.5,271.5C 187.5,262.833 187.5,254.167 187.5,245.5 Z M 146.5,285.5 C 155.839,285.334 165.173,285.5 174.5,286C 173.167,294.667 173.167,303.333 174.5,312C 165.173,312.5 155.839,312.666 146.5,312.5C 146.5,303.5 146.5,294.5 146.5,285.5 Z M 187.5,285.5 C 196.5,285.5 205.5,285.5 214.5,285.5C 214.5,294.5 214.5,303.5 214.5,312.5C 205.5,312.5 196.5,312.5 187.5,312.5C 187.5,303.5 187.5,294.5 187.5,285.5 Z"/></g>
<g><path style="opacity:0.004" fill="#68d371" d="M 251.5,4.5 C 252.833,5.16667 252.833,5.16667 251.5,4.5 Z"/></g>
<g><path style="opacity:0.004" fill="#68d371" d="M 245.5,5.5 C 244.833,6.16667 244.833,6.16667 245.5,5.5 Z"/></g>
<g><path style="opacity:0.004" fill="#68d371" d="M 242.5,7.5 C 243.833,8.16667 243.833,8.16667 242.5,7.5 Z"/></g>
<g><path style="opacity:0.004" fill="#68d371" d="M 242.5,8.5 C 241.833,9.16667 241.833,9.16667 242.5,8.5 Z"/></g>
<g><path style="opacity:0.004" fill="#68d371" d="M 239.5,10.5 C 240.833,11.1667 240.833,11.1667 239.5,10.5 Z"/></g>
<g><path style="opacity:0.004" fill="#68d371" d="M 231.5,18.5 C 232.833,19.1667 232.833,19.1667 231.5,18.5 Z"/></g>
<g><path style="opacity:0.004" fill="#68d371" d="M 231.5,19.5 C 230.833,20.1667 230.833,20.1667 231.5,19.5 Z"/></g>
<g><path style="opacity:0.004" fill="#68d371" d="M 228.5,21.5 C 229.833,22.1667 229.833,22.1667 228.5,21.5 Z"/></g>
<g><path style="opacity:0.004" fill="#68d371" d="M 228.5,22.5 C 227.833,23.1667 227.833,23.1667 228.5,22.5 Z"/></g>
<g><path style="opacity:0.004" fill="#68d371" d="M 225.5,24.5 C 226.833,25.1667 226.833,25.1667 225.5,24.5 Z"/></g>
<g><path style="opacity:0.004" fill="#68d371" d="M 225.5,25.5 C 224.833,26.1667 224.833,26.1667 225.5,25.5 Z"/></g>
<g><path style="opacity:0.004" fill="#68d371" d="M 221.5,28.5 C 222.833,29.1667 222.833,29.1667 221.5,28.5 Z"/></g>
<g><path style="opacity:0.004" fill="#68d371" d="M 98.5,34.5 C 97.8333,33.1667 97.8333,33.1667 98.5,34.5 Z"/></g>
<g><path style="opacity:0.004" fill="#68d371" d="M 214.5,35.5 C 215.833,36.1667 215.833,36.1667 214.5,35.5 Z"/></g>
<g><path style="opacity:0.004" fill="#68d371" d="M 211.5,38.5 C 212.833,39.1667 212.833,39.1667 211.5,38.5 Z"/></g>
<g><path style="opacity:0.004" fill="#68d371" d="M 211.5,39.5 C 210.833,40.1667 210.833,40.1667 211.5,39.5 Z"/></g>
<g><path style="opacity:0.004" fill="#68d371" d="M 208.5,44.5 C 207.475,44.1034 207.308,43.4368 208,42.5C 208.464,43.0944 208.631,43.7611 208.5,44.5 Z"/></g>
<g><path style="opacity:0.005" fill="#68d371" d="M 274.5,44.5 C 273.624,44.6309 272.957,44.2975 272.5,43.5C 274.808,42.1266 275.475,42.4599 274.5,44.5 Z"/></g>
<g><path style="opacity:0.004" fill="#68d371" d="M 292.5,43.5 C 291.761,43.631 291.094,43.4643 290.5,43C 291.437,42.3083 292.103,42.475 292.5,43.5 Z"/></g>
<g><path style="opacity:0.008" fill="#68d371" d="M 292.5,43.5 C 293.167,43.5 293.5,43.8333 293.5,44.5C 293.167,44.1667 292.833,43.8333 292.5,43.5 Z"/></g>
<g><path style="opacity:0.004" fill="#68d371" d="M 293.5,44.5 C 294.833,45.1667 294.833,45.1667 293.5,44.5 Z"/></g>
<g><path style="opacity:0.004" fill="#68d371" d="M 205.5,47.5 C 202.999,47.4891 202.832,46.8224 205,45.5C 205.464,46.0944 205.631,46.7611 205.5,47.5 Z"/></g>
<g><path style="opacity:0.006" fill="#68d371" d="M 296.5,48.5 C 295.833,48.5 295.5,48.1667 295.5,47.5C 296.216,44.9882 297.216,44.9882 298.5,47.5C 298.043,48.2975 297.376,48.6309 296.5,48.5 Z"/></g>
<g><path style="opacity:0.007" fill="#68d371" d="M 298.5,51.5 C 298.947,49.0268 299.947,48.8601 301.5,51C 300.552,51.4828 299.552,51.6495 298.5,51.5 Z"/></g>
<g><path style="opacity:0.004" fill="#68d371" d="M 300.5,53.5 C 301.833,54.1667 301.833,54.1667 300.5,53.5 Z"/></g>
<g><path style="opacity:0.004" fill="#68d371" d="M 193.5,56.5 C 194.833,57.1667 194.833,57.1667 193.5,56.5 Z"/></g>
<g><path style="opacity:0.004" fill="#68d371" d="M 191.5,61.5 C 190.833,61.5 190.5,61.8333 190.5,62.5C 189.224,61.6136 189.224,60.6136 190.5,59.5C 191.298,59.9569 191.631,60.6236 191.5,61.5 Z"/></g>
<g><path style="opacity:0.004" fill="#68d371" d="M 106.5,61.5 C 108.337,61.6395 108.67,62.3061 107.5,63.5C 106.702,63.0431 106.369,62.3764 106.5,61.5 Z"/></g>
<g><path style="opacity:0.004" fill="#68d371" d="M 106.5,65.5 C 106.897,64.475 107.563,64.3083 108.5,65C 107.906,65.4643 107.239,65.631 106.5,65.5 Z"/></g>
<g><path style="opacity:0.005" fill="#68d371" d="M 299.5,65.5 C 302.001,65.5109 302.168,66.1776 300,67.5C 299.536,66.9056 299.369,66.2389 299.5,65.5 Z"/></g>
<g><path style="opacity:0.004" fill="#68d371" d="M 106.5,68.5 C 106.897,67.475 107.563,67.3083 108.5,68C 107.906,68.4643 107.239,68.631 106.5,68.5 Z"/></g>
<g><path style="opacity:0.004" fill="#68d371" d="M 251.5,70.5 C 251.897,69.475 252.563,69.3083 253.5,70C 252.906,70.4643 252.239,70.631 251.5,70.5 Z"/></g>
<g><path style="opacity:0.007" fill="#68d371" d="M 268.5,69.5 C 267.749,70.5735 266.749,70.7401 265.5,70C 266.448,69.5172 267.448,69.3505 268.5,69.5 Z"/></g>
<g><path style="opacity:0.006" fill="#68d371" d="M 295.5,71.5 C 297.048,71.8212 297.715,72.8212 297.5,74.5C 295.901,74.7678 294.568,74.4345 293.5,73.5C 294.167,73.5 294.5,73.1667 294.5,72.5C 295.167,72.5 295.5,72.1667 295.5,71.5 Z"/></g>
<g><path style="opacity:0.006" fill="#68d371" d="M 177.5,75.5 C 176.475,75.1034 176.308,74.4368 177,73.5C 177.464,74.0944 177.631,74.7611 177.5,75.5 Z"/></g>
<g><path style="opacity:0.004" fill="#68d371" d="M 272.5,73.5 C 271.833,74.1667 271.833,74.1667 272.5,73.5 Z"/></g>
<g><path style="opacity:0.004" fill="#68d371" d="M 273.5,75.5 C 275.989,75.5394 277.489,76.5394 278,78.5C 275.974,78.0853 274.474,77.0853 273.5,75.5 Z"/></g>
<g><path style="opacity:0.007" fill="#68d371" d="M 288.5,76.5 C 291.001,76.5109 291.168,77.1776 289,78.5C 288.536,77.9056 288.369,77.2389 288.5,76.5 Z"/></g>
<g><path style="opacity:0.004" fill="#68d371" d="M 279.5,78.5 C 279.897,77.475 280.563,77.3083 281.5,78C 280.906,78.4643 280.239,78.631 279.5,78.5 Z"/></g>
<g><path style="opacity:0.004" fill="#68d371" d="M 285.5,77.5 C 286.833,78.1667 286.833,78.1667 285.5,77.5 Z"/></g>
<g><path style="opacity:0.004" fill="#68d371" d="M 106.5,83.5 C 106.897,82.475 107.563,82.3083 108.5,83C 107.906,83.4643 107.239,83.631 106.5,83.5 Z"/></g>
<g><path style="opacity:0.006" fill="#68d371" d="M 353.5,85.5 C 354.497,84.2875 355.497,84.4542 356.5,86C 355.906,86.4643 355.239,86.631 354.5,86.5C 353.833,86.5 353.5,86.1667 353.5,85.5 Z"/></g>
<g><path style="opacity:0.004" fill="#68d371" d="M 333.5,88.5 C 332.833,88.5 332.5,88.8333 332.5,89.5C 331.957,89.44 331.624,89.1067 331.5,88.5C 332.257,87.2267 332.923,87.2267 333.5,88.5 Z"/></g>
<g><path style="opacity:0.005" fill="#68d371" d="M 357.5,88.5 C 358.077,87.2267 358.743,87.2267 359.5,88.5C 359.03,89.463 358.363,89.463 357.5,88.5 Z"/></g>
<g><path style="opacity:0.004" fill="#68d371" d="M 296.5,91.5 C 296.897,90.475 297.563,90.3083 298.5,91C 297.906,91.4643 297.239,91.631 296.5,91.5 Z"/></g>
<g><path style="opacity:0.004" fill="#68d371" d="M 361.5,95.5 C 361.737,94.209 361.404,93.209 360.5,92.5C 361.294,89.8481 361.96,90.0148 362.5,93C 362.472,94.0698 362.139,94.9032 361.5,95.5 Z"/></g>
<g><path style="opacity:0.005" fill="#68d371" d="M 296.5,91.5 C 296.167,92.1667 295.833,92.8333 295.5,93.5C 294.624,93.6309 293.957,93.2975 293.5,92.5C 294.325,91.6143 295.325,91.281 296.5,91.5 Z"/></g>
<g><path style="opacity:0.004" fill="#68d371" d="M 291.5,93.5 C 292.833,94.1667 292.833,94.1667 291.5,93.5 Z"/></g>
<g><path style="opacity:0.004" fill="#68d371" d="M 291.5,94.5 C 290.833,95.1667 290.833,95.1667 291.5,94.5 Z"/></g>
<g><path style="opacity:0.004" fill="#68d371" d="M 285.5,102.5 C 284.833,103.167 284.167,103.833 283.5,104.5C 283.281,103.325 283.614,102.325 284.5,101.5C 285.107,101.624 285.44,101.957 285.5,102.5 Z"/></g>
<g><path style="opacity:0.004" fill="#68d371" d="M 106.5,105.5 C 106.897,104.475 107.563,104.308 108.5,105C 107.906,105.464 107.239,105.631 106.5,105.5 Z"/></g>
<g><path style="opacity:0.004" fill="#68d371" d="M 283.5,104.5 C 282.833,105.167 282.833,105.167 283.5,104.5 Z"/></g>
<g><path style="opacity:0.004" fill="#68d371" d="M 362.5,105.5 C 363.833,106.167 363.833,106.167 362.5,105.5 Z"/></g>
<g><path style="opacity:0.004" fill="#68d371" d="M 106.5,110.5 C 108.337,110.639 108.67,111.306 107.5,112.5C 106.702,112.043 106.369,111.376 106.5,110.5 Z"/></g>
<g><path style="opacity:0.008" fill="#68d371" d="M 303.5,111.5 C 304.833,112.167 304.833,112.167 303.5,111.5 Z"/></g>
<g><path style="opacity:0.004" fill="#68d371" d="M 327.5,112.5 C 328.251,111.427 329.251,111.26 330.5,112C 329.552,112.483 328.552,112.649 327.5,112.5 Z"/></g>
<g><path style="opacity:0.008" fill="#68d371" d="M 358.5,112.5 C 359.598,113.601 359.765,114.934 359,116.5C 358.333,115.167 357.667,115.167 357,116.5C 356.53,115.423 356.697,114.423 357.5,113.5C 358.167,113.5 358.5,113.167 358.5,112.5 Z"/></g>
<g><path style="opacity:0.004" fill="#68d371" d="M 333.5,113.5 C 334.167,113.5 334.5,113.833 334.5,114.5C 334.833,115.167 335.167,115.833 335.5,116.5C 334.167,116.5 332.833,116.5 331.5,116.5C 331.285,114.821 331.952,113.821 333.5,113.5 Z"/></g>
<g><path style="opacity:0.004" fill="#68d371" d="M 335.5,116.5 C 336.492,116.328 337.158,116.662 337.5,117.5C 336.508,117.672 335.842,117.338 335.5,116.5 Z"/></g>
<g><path style="opacity:0.004" fill="#68d371" d="M 106.5,118.5 C 106.897,117.475 107.563,117.308 108.5,118C 107.906,118.464 107.239,118.631 106.5,118.5 Z"/></g>
<g><path style="opacity:0.005" fill="#68d371" d="M 337.5,117.5 C 343.081,118.686 343.414,119.186 338.5,119C 337.944,118.617 337.611,118.117 337.5,117.5 Z"/></g>
<g><path style="opacity:0.004" fill="#68d371" d="M 350.5,117.5 C 351.675,117.281 352.675,117.614 353.5,118.5C 351.926,119.631 350.259,119.798 348.5,119C 349.416,118.722 350.082,118.222 350.5,117.5 Z"/></g>
<g><path style="opacity:0.004" fill="#68d371" d="M 106.5,122.5 C 106.897,121.475 107.563,121.308 108.5,122C 107.906,122.464 107.239,122.631 106.5,122.5 Z"/></g>
<g><path style="opacity:0.004" fill="#68d371" d="M 106.5,125.5 C 106.897,124.475 107.563,124.308 108.5,125C 107.906,125.464 107.239,125.631 106.5,125.5 Z"/></g>
<g><path style="opacity:0.004" fill="#68d371" d="M 251.5,125.5 C 252.833,126.167 252.833,126.167 251.5,125.5 Z"/></g>
<g><path style="opacity:0.006" fill="#68d371" d="M 280.5,126.5 C 280.897,125.475 281.563,125.308 282.5,126C 281.906,126.464 281.239,126.631 280.5,126.5 Z"/></g>
<g><path style="opacity:0.004" fill="#68d371" d="M 302.5,127.5 C 303.525,127.897 303.692,128.563 303,129.5C 302.536,128.906 302.369,128.239 302.5,127.5 Z"/></g>
<g><path style="opacity:0.004" fill="#68d371" d="M 106.5,129.5 C 108.337,129.639 108.67,130.306 107.5,131.5C 106.702,131.043 106.369,130.376 106.5,129.5 Z"/></g>
<g><path style="opacity:0.004" fill="#68d371" d="M 106.5,137.5 C 108.337,137.639 108.67,138.306 107.5,139.5C 106.702,139.043 106.369,138.376 106.5,137.5 Z"/></g>
<g><path style="opacity:0.009" fill="#68d371" d="M 296.5,140.5 C 297.776,141.386 297.776,142.386 296.5,143.5C 295.702,143.043 295.369,142.376 295.5,141.5C 296.167,141.5 296.5,141.167 296.5,140.5 Z"/></g>
<g><path style="opacity:0.004" fill="#68d371" d="M 106.5,143.5 C 106.897,142.475 107.563,142.308 108.5,143C 107.906,143.464 107.239,143.631 106.5,143.5 Z"/></g>
<g><path style="opacity:0.004" fill="#68d371" d="M 289.5,145.5 C 290.833,146.167 290.833,146.167 289.5,145.5 Z"/></g>
<g><path style="opacity:0.004" fill="#68d371" d="M 289.5,146.5 C 289.103,147.525 288.437,147.692 287.5,147C 288.094,146.536 288.761,146.369 289.5,146.5 Z"/></g>
<g><path style="opacity:0.005" fill="#68d371" d="M 399.5,151.5 C 397.972,151.483 397.472,150.816 398,149.5C 398.717,150.044 399.217,150.711 399.5,151.5 Z"/></g>
<g><path style="opacity:0.012" fill="#68d371" d="M 97.5,153.5 C 98.8333,154.167 98.8333,154.167 97.5,153.5 Z"/></g>
<g><path style="opacity:0.004" fill="#68d371" d="M 410.5,154.5 C 409.833,153.167 409.833,153.167 410.5,154.5 Z"/></g>
<g><path style="opacity:0.004" fill="#68d371" d="M 410.5,154.5 C 411.833,155.167 411.833,155.167 410.5,154.5 Z"/></g>
<g><path style="opacity:0.006" fill="#68d371" d="M 95.5,157.5 C 94.7611,157.631 94.0944,157.464 93.5,157C 94.4368,156.308 95.1034,156.475 95.5,157.5 Z"/></g>
<g><path style="opacity:0.004" fill="#68d371" d="M 387.5,156.5 C 386.833,157.167 386.833,157.167 387.5,156.5 Z"/></g>
<g><path style="opacity:0.005" fill="#68d371" d="M 412.5,157.5 C 412.56,156.957 412.893,156.624 413.5,156.5C 414.773,157.257 414.773,157.923 413.5,158.5C 412.833,158.5 412.5,158.167 412.5,157.5 Z"/></g>
<g><path style="opacity:0.004" fill="#68d371" d="M 90.5,159.5 C 91.8333,160.167 91.8333,160.167 90.5,159.5 Z"/></g>
<g><path style="opacity:0.004" fill="#68d371" d="M 90.5,160.5 C 90.5,161.167 90.5,161.833 90.5,162.5C 89.1667,161.833 89.1667,161.167 90.5,160.5 Z"/></g>
<g><path style="opacity:0.005" fill="#68d371" d="M 88.5,164.5 C 87.8333,164.5 87.5,164.833 87.5,165.5C 86.2875,164.503 86.4542,163.503 88,162.5C 88.4643,163.094 88.631,163.761 88.5,164.5 Z"/></g>
<g><path style="opacity:0.008" fill="#68d371" d="M 84.5,168.5 C 83.475,168.103 83.3083,167.437 84,166.5C 84.4643,167.094 84.631,167.761 84.5,168.5 Z"/></g>
<g><path style="opacity:0.012" fill="#68d371" d="M 80.5,170.5 C 81.8333,171.167 81.8333,171.167 80.5,170.5 Z"/></g>
<g><path style="opacity:0.004" fill="#68d371" d="M 77.5,173.5 C 78.8333,174.167 78.8333,174.167 77.5,173.5 Z"/></g>
<g><path style="opacity:0.004" fill="#68d371" d="M 77.5,174.5 C 77.5,174.833 77.5,175.167 77.5,175.5C 76.8299,175.019 76.8299,174.685 77.5,174.5 Z"/></g>
<g><path style="opacity:0.004" fill="#68d371" d="M 416.5,176.5 C 417.833,177.167 417.833,177.167 416.5,176.5 Z"/></g>
<g><path style="opacity:0.004" fill="#68d371" d="M 74.5,178.5 C 73.8333,178.5 73.5,178.833 73.5,179.5C 72.9569,179.44 72.6236,179.107 72.5,178.5C 73.2565,177.227 73.9232,177.227 74.5,178.5 Z"/></g>
<g><path style="opacity:0.007" fill="#68d371" d="M 386.5,179.5 C 386.5,180.167 386.5,180.833 386.5,181.5C 382.5,180.833 382.5,180.167 386.5,179.5 Z"/></g>
<g><path style="opacity:0.006" fill="#68d371" d="M 70.5,182.5 C 69.475,182.103 69.3083,181.437 70,180.5C 70.4643,181.094 70.631,181.761 70.5,182.5 Z"/></g>
<g><path style="opacity:0.004" fill="#68d371" d="M 251.5,181.5 C 251.897,180.475 252.563,180.308 253.5,181C 252.906,181.464 252.239,181.631 251.5,181.5 Z"/></g>
<g><path style="opacity:0.008" fill="#68d371" d="M 413.5,180.5 C 414.525,180.897 414.692,181.563 414,182.5C 413.536,181.906 413.369,181.239 413.5,180.5 Z"/></g>
<g><path style="opacity:0.006" fill="#68d371" d="M 386.5,181.5 C 386.833,181.5 387.167,181.5 387.5,181.5C 387.973,182.906 388.973,183.573 390.5,183.5C 390.611,184.117 390.944,184.617 391.5,185C 389.866,185.494 388.199,185.66 386.5,185.5C 386.5,184.167 386.5,182.833 386.5,181.5 Z"/></g>
<g><path style="opacity:0.006" fill="#68d371" d="M 67.5,185.5 C 66.475,185.103 66.3083,184.437 67,183.5C 67.4643,184.094 67.631,184.761 67.5,185.5 Z"/></g>
<g><path style="opacity:0.004" fill="#68d371" d="M 410.5,184.5 C 410.5,184.167 410.5,183.833 410.5,183.5C 413.167,183.833 413.167,184.167 410.5,184.5 Z"/></g>
<g><path style="opacity:0.004" fill="#68d371" d="M 410.5,184.5 C 409.833,185.167 409.833,185.167 410.5,184.5 Z"/></g>
<g><path style="opacity:0.005" fill="#68d371" d="M 393.5,187.5 C 394.251,186.427 395.251,186.26 396.5,187C 395.552,187.483 394.552,187.649 393.5,187.5 Z"/></g>
<g><path style="opacity:0.004" fill="#68d371" d="M 405.5,187.5 C 406.251,186.427 407.251,186.26 408.5,187C 407.648,188.728 406.648,188.895 405.5,187.5 Z"/></g>
<g><path style="opacity:0.004" fill="#68d371" d="M 397.5,188.5 C 399.628,187.371 401.961,187.204 404.5,188C 402.19,188.497 399.857,188.663 397.5,188.5 Z"/></g>
<g><path style="opacity:0.004" fill="#68d371" d="M 62.5,188.5 C 63.8333,189.167 63.8333,189.167 62.5,188.5 Z"/></g>
<g><path style="opacity:0.004" fill="#68d371" d="M 60.5,190.5 C 61.8333,191.167 61.8333,191.167 60.5,190.5 Z"/></g>
<g><path style="opacity:0.006" fill="#68d371" d="M 60.5,191.5 C 60.1034,192.525 59.4368,192.692 58.5,192C 59.0944,191.536 59.7611,191.369 60.5,191.5 Z"/></g>
<g><path style="opacity:0.004" fill="#68d371" d="M 57.5,195.5 C 56.8333,195.5 56.5,195.833 56.5,196.5C 55.9569,196.44 55.6236,196.107 55.5,195.5C 56.2565,194.227 56.9232,194.227 57.5,195.5 Z"/></g>
<g><path style="opacity:0.005" fill="#68d371" d="M 447.5,199.5 C 446.632,197.108 447.299,196.941 449.5,199C 448.906,199.464 448.239,199.631 447.5,199.5 Z"/></g>
<g><path style="opacity:0.004" fill="#68d371" d="M 53.5,199.5 C 52.8333,198.167 52.8333,198.167 53.5,199.5 Z"/></g>
<g><path style="opacity:0.005" fill="#68d371" d="M 432.5,199.5 C 430.973,199.427 429.973,200.094 429.5,201.5C 428.226,200.811 428.226,199.977 429.5,199C 430.749,198.26 431.749,198.427 432.5,199.5 Z"/></g>
<g><path style="opacity:0.004" fill="#68d371" d="M 450.5,198.5 C 451.525,198.897 451.692,199.563 451,200.5C 450.536,199.906 450.369,199.239 450.5,198.5 Z"/></g>
<g><path style="opacity:0.004" fill="#68d371" d="M 50.5,202.5 C 49.8333,202.5 49.5,202.833 49.5,203.5C 48.9569,203.44 48.6236,203.107 48.5,202.5C 49.2565,201.227 49.9232,201.227 50.5,202.5 Z"/></g>
<g><path style="opacity:0.004" fill="#68d371" d="M 427.5,203.5 C 426.833,203.5 426.5,203.833 426.5,204.5C 425.957,204.44 425.624,204.107 425.5,203.5C 426.257,202.227 426.923,202.227 427.5,203.5 Z"/></g>
<g><path style="opacity:0.008" fill="#68d371" d="M 45.5,205.5 C 46.8333,206.167 46.8333,206.167 45.5,205.5 Z"/></g>
<g><path style="opacity:0.008" fill="#68d371" d="M 42.5,208.5 C 43.8333,209.167 43.8333,209.167 42.5,208.5 Z"/></g>
<g><path style="opacity:0.004" fill="#68d371" d="M 39.5,211.5 C 40.8333,212.167 40.8333,212.167 39.5,211.5 Z"/></g>
<g><path style="opacity:0.004" fill="#68d371" d="M 458.5,214.5 C 459.525,214.897 459.692,215.563 459,216.5C 458.536,215.906 458.369,215.239 458.5,214.5 Z"/></g>
<g><path style="opacity:0.004" fill="#68d371" d="M 36.5,216.5 C 35.8333,216.5 35.5,216.833 35.5,217.5C 34.9569,217.44 34.6236,217.107 34.5,216.5C 35.2565,215.227 35.9232,215.227 36.5,216.5 Z"/></g>
<g><path style="opacity:0.004" fill="#68d371" d="M 458.5,217.5 C 459.833,218.167 459.833,218.167 458.5,217.5 Z"/></g>
<g><path style="opacity:0.008" fill="#68d371" d="M 32.5,220.5 C 31.8333,219.167 31.8333,219.167 32.5,220.5 Z"/></g>
<g><path style="opacity:0.008" fill="#68d371" d="M 455.5,224.5 C 456.833,225.167 456.833,225.167 455.5,224.5 Z"/></g>
<g><path style="opacity:0.004" fill="#68d371" d="M 454.5,225.5 C 454.833,225.5 455.167,225.5 455.5,225.5C 455.315,226.17 454.981,226.17 454.5,225.5 Z"/></g>
<g><path style="opacity:0.004" fill="#68d371" d="M 427.5,227.5 C 427.489,230.001 426.822,230.168 425.5,228C 426.094,227.536 426.761,227.369 427.5,227.5 Z"/></g>
<g><path style="opacity:0.004" fill="#68d371" d="M 450.5,229.5 C 451.239,229.369 451.906,229.536 452.5,230C 451.563,230.692 450.897,230.525 450.5,229.5 Z"/></g>
<g><path style="opacity:0.005" fill="#68d371" d="M 433.5,231.5 C 434.475,233.54 433.808,233.873 431.5,232.5C 431.957,231.702 432.624,231.369 433.5,231.5 Z"/></g>
<g><path style="opacity:0.005" fill="#68d371" d="M 447.5,231.5 C 449.337,231.639 449.67,232.306 448.5,233.5C 447.702,233.043 447.369,232.376 447.5,231.5 Z"/></g>
<g><path style="opacity:0.004" fill="#68d371" d="M 445.5,232.5 C 446.833,233.167 446.833,233.167 445.5,232.5 Z"/></g>
<g><path style="opacity:0.791" fill="#68d371" d="M 482.5,249.5 C 483.658,331.139 483.825,412.805 483,494.5C 482.392,496.154 481.892,497.821 481.5,499.5C 480.662,499.842 480.328,500.508 480.5,501.5C 478.738,502.262 477.738,503.596 477.5,505.5C 475.973,505.427 474.973,506.094 474.5,507.5C 473.508,507.328 472.842,507.662 472.5,508.5C 471.078,508.709 469.745,509.209 468.5,510C 443.833,510.167 419.167,510.333 394.5,510.5C 298.498,510.767 202.498,510.267 106.5,509C 110.374,509.207 114.207,508.374 118,506.5C 120.317,506.391 122.817,506.724 125.5,507.5C 127.593,507.514 129.426,506.848 131,505.5C 131.667,508.167 132.333,508.167 133,505.5C 135.1,505.624 137.434,505.958 140,506.5C 141.716,506.252 143.216,505.585 144.5,504.5C 151.481,504.588 158.481,504.588 165.5,504.5C 172.328,504.151 178.995,503.151 185.5,501.5C 187.674,503.781 189.674,503.781 191.5,501.5C 191.911,502.262 192.077,503.262 192,504.5C 193.314,503.687 194.481,502.687 195.5,501.5C 196.192,502.025 196.692,502.692 197,503.5C 199.401,502.534 202.067,502.534 205,503.5C 210.446,502.764 215.946,502.097 221.5,501.5C 223.387,503.133 224.887,502.8 226,500.5C 226.667,501.833 227.333,501.833 228,500.5C 228.333,501.167 228.667,501.833 229,502.5C 231.462,502.088 233.795,502.088 236,502.5C 237.452,500.175 239.119,500.175 241,502.5C 243.184,503.108 245.184,502.441 247,500.5C 247.308,501.308 247.808,501.975 248.5,502.5C 250.059,501.553 251.726,500.887 253.5,500.5C 255.41,501.548 257.244,501.548 259,500.5C 259.388,501.428 260.055,502.095 261,502.5C 264.718,501.904 268.384,501.238 272,500.5C 273.333,501.167 274.667,501.833 276,502.5C 276.333,501.833 276.667,501.167 277,500.5C 279.733,502.891 282.4,502.891 285,500.5C 285.689,501.357 286.522,502.023 287.5,502.5C 294.297,502.712 301.297,502.212 308.5,501C 307.672,500.085 306.672,499.419 305.5,499C 305.957,498.586 306.291,498.086 306.5,497.5C 305.669,415.207 305.169,332.874 305,250.5C 304.308,249.975 303.808,249.308 303.5,248.5C 305.34,247.33 307.006,246.33 308.5,245.5C 310.309,242.861 312.642,240.694 315.5,239C 314.398,236.609 315.064,236.109 317.5,237.5C 318.795,236.902 320.128,236.402 321.5,236C 370.167,235.333 418.833,235.333 467.5,236C 468.872,236.402 470.205,236.902 471.5,237.5C 473.432,236.48 475.432,236.313 477.5,237C 477.167,237.333 476.833,237.667 476.5,238C 478.833,239.243 479.5,240.909 478.5,243C 479.733,245.314 481.067,247.481 482.5,249.5 Z M 391.5,491.5 C 368.833,491.5 346.167,491.5 323.5,491.5C 323.167,412.497 323.5,333.497 324.5,254.5C 347.792,253.838 371.125,253.505 394.5,253.5C 418.252,253.343 441.919,253.843 465.5,255C 464.376,255.249 463.376,255.749 462.5,256.5C 463.827,295.356 464.494,334.356 464.5,373.5C 464.167,412.167 463.833,450.833 463.5,489.5C 453.66,490.809 443.66,491.475 433.5,491.5C 419.202,491.007 405.202,491.007 391.5,491.5 Z M 350.5,282.5 C 379.833,282.5 409.167,282.5 438.5,282.5C 438.5,333.833 438.5,385.167 438.5,436.5C 409.167,436.5 379.833,436.5 350.5,436.5C 350.5,385.167 350.5,333.833 350.5,282.5 Z M 382.5,460.5 C 383.167,460.5 383.833,460.5 384.5,460.5C 383.833,461.833 382.833,462.833 381.5,463.5C 381.5,462.833 381.5,462.167 381.5,461.5C 382.167,461.5 382.5,461.167 382.5,460.5 Z M 379.5,464.5 C 379.833,464.5 380.167,464.5 380.5,464.5C 380.34,466.153 379.674,467.486 378.5,468.5C 378.433,467.041 378.766,465.708 379.5,464.5 Z M 309.5,502.5 C 310.906,502.973 311.573,503.973 311.5,505.5C 310.094,505.027 309.427,504.027 309.5,502.5 Z"/></g>
<g><path style="opacity:0.004" fill="#68d371" d="M 89.5,236.5 C 91.337,236.639 91.6704,237.306 90.5,238.5C 89.7025,238.043 89.3691,237.376 89.5,236.5 Z"/></g>
<g><path style="opacity:0.004" fill="#68d371" d="M 89.5,241.5 C 89.8966,240.475 90.5632,240.308 91.5,241C 90.9056,241.464 90.2389,241.631 89.5,241.5 Z"/></g>
<g><path style="opacity:0.004" fill="#68d371" d="M 308.5,242.5 C 309.833,243.167 309.833,243.167 308.5,242.5 Z"/></g>
<g><path style="opacity:0.004" fill="#68d371" d="M 482.5,249.5 C 482.528,247.418 481.861,245.584 480.5,244C 481.416,243.626 482.25,243.126 483,242.5C 483.796,245.039 483.629,247.372 482.5,249.5 Z"/></g>
<g><path style="opacity:0.006" fill="#68d371" d="M 308.5,243.5 C 308.5,244.167 308.5,244.833 308.5,245.5C 307.167,244.833 307.167,244.167 308.5,243.5 Z"/></g>
<g><path style="opacity:0.004" fill="#68d371" d="M 89.5,246.5 C 91.337,246.639 91.6704,247.306 90.5,248.5C 89.7025,248.043 89.3691,247.376 89.5,246.5 Z"/></g>
<g><path style="opacity:0.004" fill="#68d371" d="M 89.5,252.5 C 89.8966,251.475 90.5632,251.308 91.5,252C 90.9056,252.464 90.2389,252.631 89.5,252.5 Z"/></g>
<g><path style="opacity:0.004" fill="#68d371" d="M 89.5,257.5 C 90.5862,257.62 91.2528,258.287 91.5,259.5C 91.1667,260.167 90.8333,260.833 90.5,261.5C 89.5713,260.311 89.238,258.978 89.5,257.5 Z"/></g>
<g><path style="opacity:0.004" fill="#68d371" d="M 89.5,263.5 C 91.4646,263.948 91.7979,264.948 90.5,266.5C 89.6143,265.675 89.281,264.675 89.5,263.5 Z"/></g>
<g><path style="opacity:0.004" fill="#68d371" d="M 300.5,263.5 C 301.525,263.897 301.692,264.563 301,265.5C 300.536,264.906 300.369,264.239 300.5,263.5 Z"/></g>
<g><path style="opacity:0.005" fill="#68d371" d="M 447.5,264.5 C 448.363,263.537 449.03,263.537 449.5,264.5C 448.743,265.773 448.077,265.773 447.5,264.5 Z"/></g>
<g><path style="opacity:0.88" fill="#68d371" d="M 455.5,446.5 C 454.833,446.5 454.5,446.833 454.5,447.5C 451.252,450.959 447.252,453.125 442.5,454C 410.5,454.667 378.5,454.667 346.5,454C 342.764,453.297 339.431,451.797 336.5,449.5C 336.5,448.833 336.167,448.5 335.5,448.5C 335.068,447.29 334.401,446.29 333.5,445.5C 332.171,388.179 332.171,330.846 333.5,273.5C 334.401,272.71 335.068,271.71 335.5,270.5C 336.167,270.5 336.5,270.167 336.5,269.5C 339.194,267.486 342.194,265.986 345.5,265C 378.167,264.333 410.833,264.333 443.5,265C 451.114,266.947 455.614,271.78 457,279.5C 457.667,332.833 457.667,386.167 457,439.5C 456.56,441.866 456.06,444.199 455.5,446.5 Z M 350.5,282.5 C 350.5,333.833 350.5,385.167 350.5,436.5C 379.833,436.5 409.167,436.5 438.5,436.5C 438.5,385.167 438.5,333.833 438.5,282.5C 409.167,282.5 379.833,282.5 350.5,282.5 Z"/></g>
<g><path style="opacity:0.004" fill="#68d371" d="M 300.5,266.5 C 301.833,267.167 301.833,267.167 300.5,266.5 Z"/></g>
<g><path style="opacity:0.004" fill="#68d371" d="M 89.5,270.5 C 89.8966,269.475 90.5632,269.308 91.5,270C 90.9056,270.464 90.2389,270.631 89.5,270.5 Z"/></g>
<g><path style="opacity:0.004" fill="#68d371" d="M 89.5,272.5 C 89.8966,271.475 90.5632,271.308 91.5,272C 90.9056,272.464 90.2389,272.631 89.5,272.5 Z"/></g>
<g><path style="opacity:0.007" fill="#68d371" d="M 333.5,273.5 C 332.711,273.217 332.044,272.717 331.5,272C 332.816,271.472 333.483,271.972 333.5,273.5 Z"/></g>
<g><path style="opacity:0.004" fill="#68d371" d="M 89.5,279.5 C 89.8966,278.475 90.5632,278.308 91.5,279C 90.9056,279.464 90.2389,279.631 89.5,279.5 Z"/></g>
<g><path style="opacity:0.004" fill="#68d371" d="M 300.5,278.5 C 301.525,278.897 301.692,279.563 301,280.5C 300.536,279.906 300.369,279.239 300.5,278.5 Z"/></g>
<g><path style="opacity:0.004" fill="#68d371" d="M 89.5,284.5 C 89.8966,283.475 90.5632,283.308 91.5,284C 90.9056,284.464 90.2389,284.631 89.5,284.5 Z"/></g>
<g><path style="opacity:0.004" fill="#68d371" d="M 89.5,288.5 C 89.8966,287.475 90.5632,287.308 91.5,288C 90.9056,288.464 90.2389,288.631 89.5,288.5 Z"/></g>
<g><path style="opacity:0.004" fill="#68d371" d="M 89.5,292.5 C 89.8966,291.475 90.5632,291.308 91.5,292C 90.9056,292.464 90.2389,292.631 89.5,292.5 Z"/></g>
<g><path style="opacity:0.004" fill="#68d371" d="M 89.5,295.5 C 89.8966,294.475 90.5632,294.308 91.5,295C 90.9056,295.464 90.2389,295.631 89.5,295.5 Z"/></g>
<g><path style="opacity:0.004" fill="#68d371" d="M 351.5,296.5 C 353.337,296.639 353.67,297.306 352.5,298.5C 351.702,298.043 351.369,297.376 351.5,296.5 Z"/></g>
<g><path style="opacity:0.004" fill="#68d371" d="M 351.5,302.5 C 353.337,302.639 353.67,303.306 352.5,304.5C 351.702,304.043 351.369,303.376 351.5,302.5 Z"/></g>
<g><path style="opacity:0.004" fill="#68d371" d="M 89.5,304.5 C 89.8966,303.475 90.5632,303.308 91.5,304C 90.9056,304.464 90.2389,304.631 89.5,304.5 Z"/></g>
<g><path style="opacity:0.004" fill="#68d371" d="M 351.5,305.5 C 353.337,305.639 353.67,306.306 352.5,307.5C 351.702,307.043 351.369,306.376 351.5,305.5 Z"/></g>
<g><path style="opacity:0.004" fill="#68d371" d="M 89.5,307.5 C 89.8966,306.475 90.5632,306.308 91.5,307C 90.9056,307.464 90.2389,307.631 89.5,307.5 Z"/></g>
<g><path style="opacity:0.004" fill="#68d371" d="M 351.5,308.5 C 353.465,308.948 353.798,309.948 352.5,311.5C 351.614,310.675 351.281,309.675 351.5,308.5 Z"/></g>
<g><path style="opacity:0.004" fill="#68d371" d="M 89.5,312.5 C 91.337,312.639 91.6704,313.306 90.5,314.5C 89.7025,314.043 89.3691,313.376 89.5,312.5 Z"/></g>
<g><path style="opacity:0.004" fill="#68d371" d="M 278.5,315.5 C 279.833,316.167 279.833,316.167 278.5,315.5 Z"/></g>
<g><path style="opacity:0.004" fill="#68d371" d="M 281.5,318.5 C 281.75,317.078 282.583,316.078 284,315.5C 284.519,317.489 283.686,318.489 281.5,318.5 Z"/></g>
<g><path style="opacity:0.004" fill="#68d371" d="M 351.5,316.5 C 353.337,316.639 353.67,317.306 352.5,318.5C 351.702,318.043 351.369,317.376 351.5,316.5 Z"/></g>
<g><path style="opacity:0.005" fill="#68d371" d="M 285.5,322.5 C 284.833,322.5 284.5,322.167 284.5,321.5C 284.75,320.078 285.583,319.078 287,318.5C 287.667,320.167 287.667,321.833 287,323.5C 286.617,322.944 286.117,322.611 285.5,322.5 Z"/></g>
<g><path style="opacity:0.004" fill="#68d371" d="M 351.5,319.5 C 353.337,319.639 353.67,320.306 352.5,321.5C 351.702,321.043 351.369,320.376 351.5,319.5 Z"/></g>
<g><path style="opacity:0.004" fill="#68d371" d="M 89.5,325.5 C 89.8966,324.475 90.5632,324.308 91.5,325C 90.9056,325.464 90.2389,325.631 89.5,325.5 Z"/></g>
<g><path style="opacity:0.005" fill="#68d371" d="M 288.5,327.5 C 288.393,325.621 288.893,325.288 290,326.5C 290.632,329.875 290.132,330.209 288.5,327.5 Z"/></g>
<g><path style="opacity:0.004" fill="#68d371" d="M 89.5,327.5 C 89.8966,326.475 90.5632,326.308 91.5,327C 90.9056,327.464 90.2389,327.631 89.5,327.5 Z"/></g>
<g><path style="opacity:0.004" fill="#68d371" d="M 351.5,329.5 C 353.337,329.639 353.67,330.306 352.5,331.5C 351.702,331.043 351.369,330.376 351.5,329.5 Z"/></g>
<g><path style="opacity:0.004" fill="#68d371" d="M 89.5,336.5 C 89.8966,335.475 90.5632,335.308 91.5,336C 90.9056,336.464 90.2389,336.631 89.5,336.5 Z"/></g>
<g><path style="opacity:0.004" fill="#68d371" d="M 89.5,338.5 C 89.8966,337.475 90.5632,337.308 91.5,338C 90.9056,338.464 90.2389,338.631 89.5,338.5 Z"/></g>
<g><path style="opacity:0.004" fill="#68d371" d="M 89.5,340.5 C 89.8966,339.475 90.5632,339.308 91.5,340C 90.9056,340.464 90.2389,340.631 89.5,340.5 Z"/></g>
<g><path style="opacity:0.004" fill="#68d371" d="M 89.5,345.5 C 89.8966,344.475 90.5632,344.308 91.5,345C 90.9056,345.464 90.2389,345.631 89.5,345.5 Z"/></g>
<g><path style="opacity:0.004" fill="#68d371" d="M 351.5,347.5 C 353.337,347.639 353.67,348.306 352.5,349.5C 351.702,349.043 351.369,348.376 351.5,347.5 Z"/></g>
<g><path style="opacity:0.004" fill="#68d371" d="M 89.5,350.5 C 91.4646,350.948 91.7979,351.948 90.5,353.5C 89.6143,352.675 89.281,351.675 89.5,350.5 Z"/></g>
<g><path style="opacity:0.004" fill="#68d371" d="M 351.5,356.5 C 353.337,356.639 353.67,357.306 352.5,358.5C 351.702,358.043 351.369,357.376 351.5,356.5 Z"/></g>
<g><path style="opacity:0.004" fill="#68d371" d="M 89.5,357.5 C 91.337,357.639 91.6704,358.306 90.5,359.5C 89.7025,359.043 89.3691,358.376 89.5,357.5 Z"/></g>
<g><path style="opacity:0.005" fill="#68d371" d="M 290.5,362.5 C 291.427,360.524 292.76,360.191 294.5,361.5C 293.311,362.429 291.978,362.762 290.5,362.5 Z"/></g>
<g><path style="opacity:0.004" fill="#68d371" d="M 89.5,361.5 C 91.337,361.639 91.6704,362.306 90.5,363.5C 89.7025,363.043 89.3691,362.376 89.5,361.5 Z"/></g>
<g><path style="opacity:0.004" fill="#68d371" d="M 269.5,361.5 C 270.833,362.167 270.833,362.167 269.5,361.5 Z"/></g>
<g><path style="opacity:0.004" fill="#68d371" d="M 89.5,364.5 C 90.5862,364.62 91.2528,365.287 91.5,366.5C 91.1667,367.167 90.8333,367.833 90.5,368.5C 89.5713,367.311 89.238,365.978 89.5,364.5 Z"/></g>
<g><path style="opacity:0.004" fill="#68d371" d="M 300.5,364.5 C 301.598,365.601 301.765,366.934 301,368.5C 300.51,367.207 300.343,365.873 300.5,364.5 Z"/></g>
<g><path style="opacity:0.004" fill="#68d371" d="M 89.5,370.5 C 89.8966,369.475 90.5632,369.308 91.5,370C 90.9056,370.464 90.2389,370.631 89.5,370.5 Z"/></g>
<g><path style="opacity:0.004" fill="#68d371" d="M 273.5,372.5 C 272.833,371.167 272.833,371.167 273.5,372.5 Z"/></g>
<g><path style="opacity:0.004" fill="#68d371" d="M 273.5,372.5 C 274.167,372.833 274.833,373.167 275.5,373.5C 274.699,375.793 274.032,375.46 273.5,372.5 Z"/></g>
<g><path style="opacity:0.004" fill="#68d371" d="M 351.5,374.5 C 353.337,374.639 353.67,375.306 352.5,376.5C 351.702,376.043 351.369,375.376 351.5,374.5 Z"/></g>
<g><path style="opacity:0.007" fill="#68d371" d="M 277.5,376.5 C 278.167,376.5 278.5,376.833 278.5,377.5C 278.44,378.043 278.107,378.376 277.5,378.5C 276.227,377.743 276.227,377.077 277.5,376.5 Z"/></g>
<g><path style="opacity:0.005" fill="#68d371" d="M 90.5,378.5 C 91.6291,380.628 91.7958,382.961 91,385.5C 90.5034,383.19 90.3367,380.857 90.5,378.5 Z"/></g>
<g><path style="opacity:0.004" fill="#68d371" d="M 300.5,378.5 C 301.525,378.897 301.692,379.563 301,380.5C 300.536,379.906 300.369,379.239 300.5,378.5 Z"/></g>
<g><path style="opacity:0.007" fill="#68d371" d="M 281.5,379.5 C 282.777,381.986 282.111,382.653 279.5,381.5C 279.855,380.478 280.522,379.811 281.5,379.5 Z"/></g>
<g><path style="opacity:0.004" fill="#68d371" d="M 351.5,380.5 C 353.337,380.639 353.67,381.306 352.5,382.5C 351.702,382.043 351.369,381.376 351.5,380.5 Z"/></g>
<g><path style="opacity:0.004" fill="#68d371" d="M 283.5,381.5 C 284.833,382.167 284.833,382.167 283.5,381.5 Z"/></g>
<g><path style="opacity:0.004" fill="#68d371" d="M 351.5,386.5 C 353.337,386.639 353.67,387.306 352.5,388.5C 351.702,388.043 351.369,387.376 351.5,386.5 Z"/></g>
<g><path style="opacity:0.004" fill="#68d371" d="M 95.5,397.5 C 95.631,398.239 95.4643,398.906 95,399.5C 94.3083,398.563 94.475,397.897 95.5,397.5 Z"/></g>
<g><path style="opacity:0.004" fill="#68d371" d="M 351.5,399.5 C 353.337,399.639 353.67,400.306 352.5,401.5C 351.702,401.043 351.369,400.376 351.5,399.5 Z"/></g>
<g><path style="opacity:0.004" fill="#68d371" d="M 99.5,404.5 C 99.6309,405.376 99.2975,406.043 98.5,406.5C 97.1266,404.192 97.4599,403.525 99.5,404.5 Z"/></g>
<g><path style="opacity:0.005" fill="#68d371" d="M 103.5,413.5 C 103.833,413.5 104.167,413.5 104.5,413.5C 105.167,413.5 105.5,413.833 105.5,414.5C 106.167,414.5 106.5,414.833 106.5,415.5C 107.167,415.5 107.5,415.833 107.5,416.5C 108.167,416.5 108.5,416.833 108.5,417.5C 108.5,418.167 108.5,418.833 108.5,419.5C 106.086,418.089 104.419,416.089 103.5,413.5 Z"/></g>
<g><path style="opacity:0.004" fill="#68d371" d="M 251.5,415.5 C 252.833,416.167 252.833,416.167 251.5,415.5 Z"/></g>
<g><path style="opacity:0.004" fill="#68d371" d="M 300.5,418.5 C 301.525,418.897 301.692,419.563 301,420.5C 300.536,419.906 300.369,419.239 300.5,418.5 Z"/></g>
<g><path style="opacity:0.004" fill="#68d371" d="M 108.5,419.5 C 109.833,420.167 109.833,420.167 108.5,419.5 Z"/></g>
<g><path style="opacity:0.006" fill="#68d371" d="M 112.5,421.5 C 113.368,423.892 112.701,424.059 110.5,422C 111.094,421.536 111.761,421.369 112.5,421.5 Z"/></g>
<g><path style="opacity:0.005" fill="#68d371" d="M 116.5,424.5 C 116.989,427.826 116.322,427.993 114.5,425C 115.094,424.536 115.761,424.369 116.5,424.5 Z"/></g>
<g><path style="opacity:0.004" fill="#68d371" d="M 123.5,429.5 C 123.103,430.525 122.437,430.692 121.5,430C 122.094,429.536 122.761,429.369 123.5,429.5 Z"/></g>
<g><path style="opacity:0.004" fill="#68d371" d="M 125.5,431.5 C 126.766,432.09 128.099,432.59 129.5,433C 127.537,433.844 126.204,433.344 125.5,431.5 Z"/></g>
<g><path style="opacity:0.004" fill="#68d371" d="M 130.5,433.5 C 131.833,434.167 131.833,434.167 130.5,433.5 Z"/></g>
<g><path style="opacity:0.004" fill="#68d371" d="M 300.5,433.5 C 301.525,433.897 301.692,434.563 301,435.5C 300.536,434.906 300.369,434.239 300.5,433.5 Z"/></g>
<g><path style="opacity:0.004" fill="#68d371" d="M 139.5,437.5 C 140.601,436.402 141.934,436.235 143.5,437C 142.207,437.49 140.873,437.657 139.5,437.5 Z"/></g>
<g><path style="opacity:0.004" fill="#68d371" d="M 298.5,437.5 C 298.897,436.475 299.563,436.308 300.5,437C 299.906,437.464 299.239,437.631 298.5,437.5 Z"/></g>
<g><path style="opacity:0.004" fill="#68d371" d="M 333.5,445.5 C 333.253,447.975 332.587,447.975 331.5,445.5C 331.97,444.537 332.637,444.537 333.5,445.5 Z"/></g>
<g><path style="opacity:0.004" fill="#68d371" d="M 454.5,447.5 C 454.833,447.5 455.167,447.5 455.5,447.5C 456.628,450.217 455.628,451.384 452.5,451C 453.823,450.184 454.489,449.017 454.5,447.5 Z"/></g>
<g><path style="opacity:0.006" fill="#68d371" d="M 335.5,448.5 C 336.167,448.5 336.5,448.833 336.5,449.5C 336.631,450.376 336.298,451.043 335.5,451.5C 334.224,450.386 334.224,449.386 335.5,448.5 Z"/></g>
<g><path style="opacity:0.006" fill="#68d371" d="M 338.5,452.5 C 339.473,452.987 340.473,453.487 341.5,454C 339.843,454.725 338.843,454.225 338.5,452.5 Z"/></g>
<g><path style="opacity:0.853" fill="#68d371" d="M 405.5,461.5 C 406.864,463.191 408.197,464.858 409.5,466.5C 410.262,468.956 410.929,471.456 411.5,474C 410.841,476.462 410.507,478.962 410.5,481.5C 411.598,482.601 411.765,483.934 411,485.5C 410.329,486.252 409.496,486.586 408.5,486.5C 408.5,485.833 408.5,485.167 408.5,484.5C 403.894,489.3 398.227,491.634 391.5,491.5C 387.395,489.942 383.729,487.609 380.5,484.5C 380.34,482.847 379.674,481.514 378.5,480.5C 378.082,479.778 377.416,479.278 376.5,479C 377.392,474.236 377.392,469.403 376.5,464.5C 377.5,464.5 378.5,464.5 379.5,464.5C 378.766,465.708 378.433,467.041 378.5,468.5C 379.674,467.486 380.34,466.153 380.5,464.5C 381.167,464.5 381.5,464.167 381.5,463.5C 382.833,462.833 383.833,461.833 384.5,460.5C 383.833,460.5 383.167,460.5 382.5,460.5C 382.908,459.357 383.575,458.357 384.5,457.5C 390.227,457.657 396.227,457.657 402.5,457.5C 405.028,458.498 405.028,459.331 402.5,460C 403.527,460.513 404.527,461.013 405.5,461.5 Z M 379.5,464.5 C 379.833,464.5 380.167,464.5 380.5,464.5C 380.34,466.153 379.674,467.486 378.5,468.5C 378.433,467.041 378.766,465.708 379.5,464.5 Z"/></g>
<g><path style="opacity:0.005" fill="#68d371" d="M 381.5,461.5 C 381.5,462.167 381.5,462.833 381.5,463.5C 380.833,463.5 380.5,463.833 380.5,464.5C 380.167,464.5 379.833,464.5 379.5,464.5C 379.285,462.821 379.952,461.821 381.5,461.5 Z"/></g>
<g><path style="opacity:0.005" fill="#68d371" d="M 409.5,466.5 C 409.639,464.663 410.306,464.33 411.5,465.5C 411.043,466.298 410.376,466.631 409.5,466.5 Z"/></g>
<g><path style="opacity:0.007" fill="#68d371" d="M 378.5,480.5 C 378.489,483.001 377.822,483.168 376.5,481C 377.094,480.536 377.761,480.369 378.5,480.5 Z"/></g>
<g><path style="opacity:0.005" fill="#68d371" d="M 380.5,486.5 C 384.102,488.49 384.102,489.323 380.5,489C 379.402,488.23 379.402,487.397 380.5,486.5 Z"/></g>
<g><path style="opacity:0.005" fill="#68d371" d="M 408.5,486.5 C 408.489,488.686 407.489,489.519 405.5,489C 406.373,487.955 407.373,487.122 408.5,486.5 Z"/></g>
<g><path style="opacity:0.005" fill="#68d371" d="M 481.5,499.5 C 483.176,500.183 483.843,501.517 483.5,503.5C 482.5,503.5 481.5,503.5 480.5,503.5C 480.5,502.833 480.5,502.167 480.5,501.5C 481.338,501.158 481.672,500.492 481.5,499.5 Z"/></g>
<g><path style="opacity:0.007" fill="#68d371" d="M 480.5,503.5 C 480.5,504.5 480.5,505.5 480.5,506.5C 479.5,506.5 478.5,506.5 477.5,506.5C 477.5,506.167 477.5,505.833 477.5,505.5C 478.5,504.833 479.5,504.167 480.5,503.5 Z"/></g>
<g><path style="opacity:0.005" fill="#68d371" d="M 477.5,506.5 C 477.5,507.5 477.5,508.5 477.5,509.5C 475.585,509.784 473.919,509.451 472.5,508.5C 473.492,508.672 474.158,508.338 474.5,507.5C 475.609,507.443 476.609,507.11 477.5,506.5 Z"/></g>
<g><path style="opacity:0.004" fill="#68d371" d="M 97.5,508.5 C 99.6626,509.362 101.663,509.696 103.5,509.5C 102.5,509.833 101.5,510.167 100.5,510.5C 98.9704,510.36 97.9704,509.693 97.5,508.5 Z"/></g>
<g><path style="opacity:0.004" fill="#68d371" d="M 104.5,508.5 C 105.525,508.897 105.692,509.563 105,510.5C 104.536,509.906 104.369,509.239 104.5,508.5 Z"/></g>
</svg>
