<?xml version="1.0" encoding="UTF-8"?>
<svg version="1.1" xmlns="http://www.w3.org/2000/svg" width="503" height="503">
<path d="M0 0 C165.99 0 331.98 0 503 0 C503 165.99 503 331.98 503 503 C337.01 503 171.02 503 0 503 C0 337.01 0 171.02 0 0 Z " fill="#FEFEFE" transform="translate(0,0)"/>
<path d="M0 0 C0 14.19 0 28.38 0 43 C6.27 43 12.54 43 19 43 C19.33 42.01 19.66 41.02 20 40 C22.27182486 37.34953767 24.06013224 36.14649173 27.53125 35.60546875 C33.90257956 35.36916944 37.94261655 36.07794753 43 40 C46.47412635 43.74136684 47.22895029 46.40726877 47.25 51.375 C47.18629371 52.91760237 47.10956696 54.45997544 47 56 C46.34 56 45.68 56 45 56 C44.34 57.65 43.68 59.3 43 61 C42.34 61 41.68 61 41 61 C41 61.66 41 62.32 41 63 C36.4294633 65.35898668 32.03219881 65.60386386 27 65 C23.49348779 63.39920095 21.76123253 61.76123253 19 59 C12.73 58.67 6.46 58.34 0 58 C0 77.14 0 96.28 0 116 C11.22 115.67 22.44 115.34 34 115 C33.84252727 108.35845377 33.84252727 108.35845377 33.63964844 101.71826172 C33.55903964 94.95882392 34.81370027 91.35358046 39.5625 86.35546875 C44.82455596 82.08004828 48.2688372 81.8740205 54.953125 81.90234375 C55.61334656 81.9037587 56.27356812 81.90517365 56.95379639 81.90663147 C59.05257794 81.91220755 61.15125095 81.92475553 63.25 81.9375 C64.67708179 81.9425181 66.10416525 81.94708046 67.53125 81.95117188 C71.02086832 81.96216912 74.51042356 81.9794172 78 82 C78 81.34 78 80.68 78 80 C78.66 80 79.32 80 80 80 C80.33 79.01 80.66 78.02 81 77 C85.48970079 74.00686614 89.738188 74.54373099 95 75 C98.39017645 75.68175395 100.9511264 76.8200172 103.3125 79.4765625 C106.12564635 83.75488925 106.99830209 87.96895283 106 93 C104.43953091 96.81363421 102.27677181 100.43556989 99 103 C93.51212461 104.8292918 87.27505232 104.97502242 81.9375 102.6875 C80 101 80 101 78 98 C75.08935621 97.58210911 75.08935621 97.58210911 71.6796875 97.70703125 C70.42285156 97.71669922 69.16601562 97.72636719 67.87109375 97.73632812 C66.55238281 97.76146484 65.23367188 97.78660156 63.875 97.8125 C62.53517097 97.82754517 61.19532596 97.84123387 59.85546875 97.85351562 C56.56991158 97.88897128 53.28515418 97.93839151 50 98 C49.96261719 99.21816406 49.92523438 100.43632813 49.88671875 101.69140625 C49.82101883 103.3151329 49.75457291 104.93882949 49.6875 106.5625 C49.66494141 107.36236328 49.64238281 108.16222656 49.61914062 108.98632812 C49.28730952 116.37711187 47.47871709 122.6734695 42 128 C38.25 129.3125 38.25 129.3125 35 130 C35 130.66 35 131.32 35 132 C23.78 132 12.56 132 1 132 C1 136.62 1 141.24 1 146 C17.73333876 145.98514328 34.46631085 145.94396078 51.19947338 145.86790943 C58.96903305 145.83325957 66.73841531 145.80790394 74.50805664 145.80444336 C81.28028587 145.80140343 88.05219913 145.78090949 94.82430631 145.73947543 C98.41002449 145.71814581 101.99529349 145.70554427 105.58107567 145.71384621 C109.58468541 145.72278841 113.58709524 145.69276242 117.59057617 145.65942383 C118.77884506 145.66804947 119.96711395 145.67667511 121.19139099 145.68556213 C127.78591913 145.79877205 127.78591913 145.79877205 133.16230774 142.50956726 C133.76874619 141.68141006 134.37518463 140.85325287 135 140 C136.8125 139.1875 136.8125 139.1875 139 139 C140.2375 138.87625 141.475 138.7525 142.75 138.625 C147.74767628 138.71841451 151.39405054 140.58427264 155 144 C157.83821553 148.32182819 158.61000072 152.97824594 157.7109375 158.04296875 C156.13328672 162.38584259 152.97088777 165.81825255 149.0390625 168.17578125 C144.4204644 170.04268585 139.64520042 169.48048138 135.125 167.6875 C132 166 132 166 130 163 C127.63192537 162.53655381 127.63192537 162.53655381 124.82418823 162.60127258 C123.72759888 162.58873444 122.63100952 162.57619629 121.50119019 162.5632782 C119.688582 162.56543083 119.688582 162.56543083 117.83935547 162.56762695 C116.57109924 162.5574353 115.30284302 162.54724365 113.99615479 162.53674316 C110.51289067 162.50909049 107.0297898 162.49987757 103.54643011 162.49388909 C99.908176 162.48452678 96.27004488 162.45832526 92.63186646 162.43388367 C85.74001012 162.39015571 78.84817757 162.36164755 71.95622456 162.33856028 C64.11103327 162.31154223 56.26596532 162.26762874 48.42086196 162.22227156 C32.28062409 162.12933511 16.14039931 162.05992641 0 162 C0 171.24 0 180.48 0 190 C21.68786057 189.98514929 43.37549025 189.94399409 65.06322765 189.86790943 C75.13307814 189.83324584 85.20279154 189.80790211 95.27270508 189.80444336 C104.04893417 189.80140537 112.82491921 189.78093717 121.60105401 189.73947543 C126.24867875 189.71812869 130.89595638 189.70555338 135.5436306 189.71384621 C139.91783824 189.72137581 144.29134194 189.70560847 148.66542053 189.67193985 C150.27101886 189.66369334 151.87668701 189.66397226 153.48227882 189.67340279 C155.67527084 189.68500862 157.86594951 189.66593676 160.0587616 189.63923645 C161.28566806 189.63647107 162.51257452 189.63370569 163.77665997 189.63085651 C167.87798081 188.82816584 169.34789318 187.14283465 172 184 C173.77209714 182.22790286 176.22268018 182.74413037 178.625 182.6875 C184.3966688 182.74240291 187.46760612 183.43194525 192 187 C195.43690459 190.76950826 195.50871649 194.65857223 195.35546875 199.5625 C194.68959366 204.12850063 192.30677647 206.85162068 188.9375 209.8125 C184.55071226 212.50117635 179.9924684 212.62937421 175 212 C169.35971223 209.07913669 169.35971223 209.07913669 168 205 C112.56 205 57.12 205 0 205 C0 217.87 0 230.74 0 244 C15.18 244 30.36 244 46 244 C46 248.95 46 253.9 46 259 C30.82 259 15.64 259 0 259 C0 269.89 0 280.78 0 292 C7.29922567 291.92122448 7.29922567 291.92122448 14.59814453 291.81982422 C19.78842218 291.79161124 24.15592339 291.87128813 29 294 C29 294.66 29 295.32 29 296 C29.60368408 296.26619141 30.20736816 296.53238281 30.8293457 296.80664062 C34.75086377 298.96257137 36.48987197 301.8306529 38 306 C38.5997847 311.51831436 38.47362565 316.95970983 38.3125 322.5 C38.2873814 324.00517122 38.26457452 325.51038289 38.24414062 327.015625 C38.18943666 330.6779332 38.10336354 334.3387044 38 338 C40.64 338 43.28 338 46 338 C46 342.95 46 347.9 46 353 C38.79195024 353.45050311 34.36831159 353.4047346 28.36328125 349.2890625 C27.91339844 348.86367188 27.46351563 348.43828125 27 348 C27 347.34 27 346.68 27 346 C26.34 346 25.68 346 25 346 C21.34772916 338.40171 21.44737297 330.76315244 21.3125 322.5 C21.27927158 321.09111514 21.24477695 319.68225955 21.20898438 318.2734375 C21.1268973 314.84923365 21.06176262 311.42463073 21 308 C14.07 307.67 7.14 307.34 0 307 C0 334.06 0 361.12 0 389 C15.18 389 30.36 389 46 389 C46 393.95 46 398.9 46 404 C27.10997236 404.11612722 8.22004674 404.20516761 -10.6702652 404.25906086 C-19.44289867 404.28475816 -28.21530522 404.31974489 -36.98779297 404.37719727 C-44.64077688 404.42729362 -52.29359632 404.45935247 -59.94673967 404.47044247 C-63.99287329 404.47691726 -68.03853669 404.49195377 -72.08451843 404.52865028 C-75.90627264 404.56302657 -79.72737076 404.57297093 -83.54926491 404.56553841 C-85.5930845 404.56753291 -87.63683549 404.59420704 -89.6804657 404.62210083 C-106.16233211 404.53211164 -119.25586448 399.56131872 -131.08203125 387.95703125 C-140.38867517 377.798799 -146.13172475 367.44074645 -146.12025452 353.47000122 C-146.12162918 352.17438766 -146.12300385 350.87877411 -146.12442017 349.54389954 C-146.12088169 348.12057472 -146.11724689 346.69725013 -146.11352539 345.27392578 C-146.11324313 343.7656708 -146.11340202 342.25741567 -146.1139679 340.74916077 C-146.11425434 336.66492348 -146.10838234 332.58071568 -146.10139394 328.49648523 C-146.09513493 324.22437344 -146.09455458 319.95226094 -146.09336853 315.68014526 C-146.09026273 307.59487324 -146.08205946 299.50961477 -146.07201904 291.42434871 C-146.06083459 282.21761514 -146.05534157 273.01088091 -146.05032361 263.80414224 C-146.03987622 244.86941892 -146.02154007 225.93471417 -146 207 C-166.13 207 -186.26 207 -207 207 C-202.75861453 202.05171695 -198.99509926 198.11473908 -194.00073242 194.15673828 C-149.49663457 160.06952638 -149.49663457 160.06952638 -127.45131493 111.2576828 C-125.78565144 90.8632876 -127.70969056 70.14847914 -131 50 C-134.63 50 -138.26 50 -142 50 C-142 43.07 -142 36.14 -142 29 C-114.94 29 -87.88 29 -60 29 C-60 35.93 -60 42.86 -60 50 C-63.63 50 -67.26 50 -71 50 C-71 56.6 -71 63.2 -71 70 C-70.34 70 -69.68 70 -69 70 C-68.72650002 69.40159931 -68.45300005 68.80319862 -68.1712122 68.18666458 C-67.03698494 66.06905125 -65.94920012 64.70005965 -64.26060486 63.0133667 C-63.70396652 62.45253387 -63.14732819 61.89170105 -62.57382202 61.31387329 C-61.96543488 60.71110565 -61.35704773 60.10833801 -60.73022461 59.48730469 C-59.76659248 58.52082504 -59.76659248 58.52082504 -58.78349304 57.53482056 C-56.66129684 55.40892296 -54.5319923 53.29030502 -52.40234375 51.171875 C-50.92749708 49.69822029 -49.45301971 48.22419589 -47.97889709 46.74981689 C-44.8909526 43.66343601 -41.79967771 40.58044361 -38.70581055 37.5 C-34.73019527 33.54141156 -30.76123202 29.5762347 -26.7945013 25.60874557 C-23.75203329 22.56654873 -20.70697189 19.52695932 -17.66101265 16.48825836 C-16.19590514 15.02634338 -14.73141165 13.56381279 -13.26753044 12.10066986 C-11.22765512 10.06294982 -9.18452925 8.02854944 -7.14038086 5.99511719 C-6.52996948 5.38425262 -5.91955811 4.77338806 -5.29064941 4.14401245 C-1.11447604 0 -1.11447604 0 0 0 Z " fill="#6AD375" transform="translate(245,16)"/>
<path d="M0 0 C1.77927635 -0.00422974 1.77927635 -0.00422974 3.59449768 -0.00854492 C4.89745285 -0.00652069 6.20040802 -0.00449646 7.54284668 -0.00241089 C8.927567 -0.00376577 10.31228695 -0.0055462 11.69700623 -0.00772095 C15.45931568 -0.01228491 19.22159776 -0.01050997 22.9839077 -0.00734186 C26.91830902 -0.00481292 30.85270797 -0.00715729 34.78710938 -0.00872803 C41.39465761 -0.01054816 48.00219467 -0.00814751 54.60974121 -0.00338745 C62.25269418 0.00205487 69.89562047 0.0002921 77.53857279 -0.00521386 C84.09658998 -0.00974943 90.65459914 -0.01039335 97.2126174 -0.00777519 C101.13121573 -0.00621487 105.04980152 -0.00601197 108.96839905 -0.00931168 C112.6521028 -0.01219683 116.3357721 -0.0102028 120.01947212 -0.00441742 C122.01916074 -0.00246082 124.01885227 -0.00543827 126.01853943 -0.00854492 C127.20472366 -0.0057251 128.3909079 -0.00290527 129.61303711 0 C130.64615776 0.00037703 131.67927841 0.00075405 132.74370575 0.0011425 C135.30651855 0.12698364 135.30651855 0.12698364 138.30651855 1.12698364 C138.30651855 1.78698364 138.30651855 2.44698364 138.30651855 3.12698364 C138.88401855 3.35385864 139.46151855 3.58073364 140.05651855 3.81448364 C143.37164369 5.74830664 145.7391348 8.33448348 146.91141099 12.03798264 C147.30829931 14.13639882 147.43521077 16.04202472 147.44073963 18.17599964 C147.44519748 18.97734453 147.44965532 19.77868942 147.45424825 20.60431749 C147.45406389 21.47891844 147.45387952 22.3535194 147.45368958 23.25462341 C147.45736626 24.18823564 147.46104295 25.12184787 147.46483105 26.08375138 C147.47586537 29.21966833 147.47971129 32.35555214 147.48352051 35.4914856 C147.48978524 37.736848 147.49643205 39.98220936 147.50343323 42.22756958 C147.52083939 48.33297631 147.53139351 54.43837521 147.53963876 60.54380059 C147.54478874 64.35706929 147.55086441 68.17033555 147.55714989 71.98360252 C147.57401655 82.54456575 147.58865233 93.10552683 147.59589863 103.66650105 C147.59780845 106.40552586 147.5997288 109.14455066 147.60168457 111.88357544 C147.60216831 112.56432804 147.60265205 113.24508065 147.60315045 113.94646212 C147.61145259 124.97665816 147.63679453 136.00674583 147.66926525 147.03689454 C147.70234218 158.36543561 147.72001511 169.6939022 147.72354287 181.02249879 C147.72589571 187.38149423 147.73488709 193.74031823 147.76000404 200.09926796 C147.78324756 206.08042005 147.78753283 212.06128733 147.77724266 218.04247284 C147.77674632 220.23746118 147.78309547 222.43246336 147.79679871 224.62740898 C147.81446427 227.62474619 147.80743736 230.62105536 147.79426575 233.61839294 C147.80523499 234.48630174 147.81620424 235.35421053 147.82750589 236.24841958 C147.76620972 242.02857673 146.62011901 245.36357176 143.30651855 250.12698364 C138.48803319 254.69836719 134.07878268 256.37251881 127.48210144 256.39440918 C125.73478226 256.40720413 125.73478226 256.40720413 123.9521637 256.42025757 C122.68295578 256.4193512 121.41374786 256.41844482 120.1060791 256.41751099 C118.74887727 256.42349883 117.39167884 256.43030497 116.03448486 256.43786621 C112.35459081 256.45550866 108.67478981 256.46022088 104.99485755 256.46149778 C102.69334243 256.46292108 100.39185084 256.46719408 98.09034157 256.47249222 C90.05406827 256.49098755 82.01786126 256.49916356 73.98156738 256.49758911 C66.50215538 256.49638824 59.02303219 256.51748108 51.54369324 256.54907644 C45.11293362 256.57526971 38.68226814 256.58595511 32.25145561 256.58467829 C28.41478905 256.5841695 24.57837918 256.58980641 20.74176598 256.61103439 C17.13092123 256.63046821 13.52057664 256.63050672 9.90971375 256.61600113 C7.96227075 256.61292937 6.01482744 256.62955398 4.06745911 256.6468811 C-2.94584026 256.59673838 -7.80293674 256.0815014 -13.69348145 252.12698364 C-14.02348145 251.13698364 -14.35348145 250.14698364 -14.69348145 249.12698364 C-15.43598145 248.38448364 -15.43598145 248.38448364 -16.19348145 247.62698364 C-19.27490272 244.54556237 -18.81678535 240.89161479 -18.83654904 236.77873111 C-18.83568256 235.90121731 -18.83481608 235.02370351 -18.83392334 234.11959839 C-18.83689446 233.18684058 -18.83986558 232.25408278 -18.84292674 231.29305959 C-18.85162823 228.1540331 -18.85312322 225.01504469 -18.85461426 221.87600708 C-18.85924142 219.63079242 -18.86426594 217.38557855 -18.86965942 215.1403656 C-18.88279557 209.03076425 -18.88923079 202.9211739 -18.89367008 196.81156063 C-18.89659895 192.99611958 -18.90070341 189.18068154 -18.90517426 185.365242 C-18.91728483 174.80002849 -18.92766621 164.2348176 -18.93104935 153.66959763 C-18.9313787 152.65527261 -18.9313787 152.65527261 -18.9317147 151.62045617 C-18.93193298 150.9426256 -18.93215125 150.26479503 -18.93237615 149.56642413 C-18.93281961 148.19289319 -18.93326617 146.81936224 -18.93371582 145.4458313 C-18.93393725 144.76451319 -18.93415868 144.08319509 -18.93438682 143.38123098 C-18.93833377 132.34452621 -18.95578448 121.30788751 -18.97907534 110.27120826 C-19.00279838 98.9381801 -19.01499374 87.60519624 -19.01641726 76.27213883 C-19.0174662 69.90980869 -19.02339289 63.5475717 -19.04123688 57.18526459 C-19.05769623 51.20005605 -19.05988336 45.21501091 -19.05109787 39.22978783 C-19.05032634 37.03319296 -19.05468537 34.83658938 -19.06455612 32.64001656 C-19.07724398 29.64058368 -19.07141574 26.64173222 -19.06097412 23.64230347 C-19.07305873 22.3394171 -19.07305873 22.3394171 -19.08538747 21.0102098 C-19.03565548 14.89895638 -18.14262084 9.92122905 -13.97473145 5.16604614 C-13.38691895 4.69940552 -12.79910645 4.23276489 -12.19348145 3.75198364 C-11.60566895 3.26987427 -11.01785645 2.78776489 -10.41223145 2.29104614 C-7.00763418 -0.01479473 -3.98343425 0.00145371 0 0 Z " fill="#F9FDF9" transform="translate(317.6934814453125,233.87301635742188)"/>
<path d="M0 0 C28.38 0 56.76 0 86 0 C86 48.18 86 96.36 86 146 C57.62 146 29.24 146 0 146 C0 97.82 0 49.64 0 0 Z " fill="#FDFEFD" transform="translate(339,276)"/>
<path d="M0 0 C1.77927635 -0.00422974 1.77927635 -0.00422974 3.59449768 -0.00854492 C4.89745285 -0.00652069 6.20040802 -0.00449646 7.54284668 -0.00241089 C8.927567 -0.00376577 10.31228695 -0.0055462 11.69700623 -0.00772095 C15.45931568 -0.01228491 19.22159776 -0.01050997 22.9839077 -0.00734186 C26.91830902 -0.00481292 30.85270797 -0.00715729 34.78710938 -0.00872803 C41.39465761 -0.01054816 48.00219467 -0.00814751 54.60974121 -0.00338745 C62.25269418 0.00205487 69.89562047 0.0002921 77.53857279 -0.00521386 C84.09658998 -0.00974943 90.65459914 -0.01039335 97.2126174 -0.00777519 C101.13121573 -0.00621487 105.04980152 -0.00601197 108.96839905 -0.00931168 C112.6521028 -0.01219683 116.3357721 -0.0102028 120.01947212 -0.00441742 C122.01916074 -0.00246082 124.01885227 -0.00543827 126.01853943 -0.00854492 C127.20472366 -0.0057251 128.3909079 -0.00290527 129.61303711 0 C130.64615776 0.00037703 131.67927841 0.00075405 132.74370575 0.0011425 C135.30651855 0.12698364 135.30651855 0.12698364 138.30651855 1.12698364 C138.30651855 1.78698364 138.30651855 2.44698364 138.30651855 3.12698364 C138.88401855 3.35385864 139.46151855 3.58073364 140.05651855 3.81448364 C143.37164369 5.74830664 145.7391348 8.33448348 146.91141099 12.03798264 C147.30829931 14.13639882 147.43521077 16.04202472 147.44073963 18.17599964 C147.44519748 18.97734453 147.44965532 19.77868942 147.45424825 20.60431749 C147.45406389 21.47891844 147.45387952 22.3535194 147.45368958 23.25462341 C147.45736626 24.18823564 147.46104295 25.12184787 147.46483105 26.08375138 C147.47586537 29.21966833 147.47971129 32.35555214 147.48352051 35.4914856 C147.48978524 37.736848 147.49643205 39.98220936 147.50343323 42.22756958 C147.52083939 48.33297631 147.53139351 54.43837521 147.53963876 60.54380059 C147.54478874 64.35706929 147.55086441 68.17033555 147.55714989 71.98360252 C147.57401655 82.54456575 147.58865233 93.10552683 147.59589863 103.66650105 C147.59780845 106.40552586 147.5997288 109.14455066 147.60168457 111.88357544 C147.60216831 112.56432804 147.60265205 113.24508065 147.60315045 113.94646212 C147.61145259 124.97665816 147.63679453 136.00674583 147.66926525 147.03689454 C147.70234218 158.36543561 147.72001511 169.6939022 147.72354287 181.02249879 C147.72589571 187.38149423 147.73488709 193.74031823 147.76000404 200.09926796 C147.78324756 206.08042005 147.78753283 212.06128733 147.77724266 218.04247284 C147.77674632 220.23746118 147.78309547 222.43246336 147.79679871 224.62740898 C147.81446427 227.62474619 147.80743736 230.62105536 147.79426575 233.61839294 C147.80523499 234.48630174 147.81620424 235.35421053 147.82750589 236.24841958 C147.76620972 242.02857673 146.62011901 245.36357176 143.30651855 250.12698364 C138.48803319 254.69836719 134.07878268 256.37251881 127.48210144 256.39440918 C125.73478226 256.40720413 125.73478226 256.40720413 123.9521637 256.42025757 C122.68295578 256.4193512 121.41374786 256.41844482 120.1060791 256.41751099 C118.74887727 256.42349883 117.39167884 256.43030497 116.03448486 256.43786621 C112.35459081 256.45550866 108.67478981 256.46022088 104.99485755 256.46149778 C102.69334243 256.46292108 100.39185084 256.46719408 98.09034157 256.47249222 C90.05406827 256.49098755 82.01786126 256.49916356 73.98156738 256.49758911 C66.50215538 256.49638824 59.02303219 256.51748108 51.54369324 256.54907644 C45.11293362 256.57526971 38.68226814 256.58595511 32.25145561 256.58467829 C28.41478905 256.5841695 24.57837918 256.58980641 20.74176598 256.61103439 C17.13092123 256.63046821 13.52057664 256.63050672 9.90971375 256.61600113 C7.96227075 256.61292937 6.01482744 256.62955398 4.06745911 256.6468811 C-2.94584026 256.59673838 -7.80293674 256.0815014 -13.69348145 252.12698364 C-14.02348145 251.13698364 -14.35348145 250.14698364 -14.69348145 249.12698364 C-15.43598145 248.38448364 -15.43598145 248.38448364 -16.19348145 247.62698364 C-19.27490272 244.54556237 -18.81678535 240.89161479 -18.83654904 236.77873111 C-18.83568256 235.90121731 -18.83481608 235.02370351 -18.83392334 234.11959839 C-18.83689446 233.18684058 -18.83986558 232.25408278 -18.84292674 231.29305959 C-18.85162823 228.1540331 -18.85312322 225.01504469 -18.85461426 221.87600708 C-18.85924142 219.63079242 -18.86426594 217.38557855 -18.86965942 215.1403656 C-18.88279557 209.03076425 -18.88923079 202.9211739 -18.89367008 196.81156063 C-18.89659895 192.99611958 -18.90070341 189.18068154 -18.90517426 185.365242 C-18.91728483 174.80002849 -18.92766621 164.2348176 -18.93104935 153.66959763 C-18.9313787 152.65527261 -18.9313787 152.65527261 -18.9317147 151.62045617 C-18.93193298 150.9426256 -18.93215125 150.26479503 -18.93237615 149.56642413 C-18.93281961 148.19289319 -18.93326617 146.81936224 -18.93371582 145.4458313 C-18.93393725 144.76451319 -18.93415868 144.08319509 -18.93438682 143.38123098 C-18.93833377 132.34452621 -18.95578448 121.30788751 -18.97907534 110.27120826 C-19.00279838 98.9381801 -19.01499374 87.60519624 -19.01641726 76.27213883 C-19.0174662 69.90980869 -19.02339289 63.5475717 -19.04123688 57.18526459 C-19.05769623 51.20005605 -19.05988336 45.21501091 -19.05109787 39.22978783 C-19.05032634 37.03319296 -19.05468537 34.83658938 -19.06455612 32.64001656 C-19.07724398 29.64058368 -19.07141574 26.64173222 -19.06097412 23.64230347 C-19.07305873 22.3394171 -19.07305873 22.3394171 -19.08538747 21.0102098 C-19.03565548 14.89895638 -18.14262084 9.92122905 -13.97473145 5.16604614 C-13.38691895 4.69940552 -12.79910645 4.23276489 -12.19348145 3.75198364 C-11.60566895 3.26987427 -11.01785645 2.78776489 -10.41223145 2.29104614 C-7.00763418 -0.01479473 -3.98343425 0.00145371 0 0 Z M-3.69348145 16.12698364 C-3.79586235 18.9923519 -3.8323346 21.83376462 -3.82719421 24.69972229 C-3.82945977 25.60979776 -3.83172533 26.51987323 -3.83405954 27.45752674 C-3.84043024 30.53152173 -3.83956822 33.60547298 -3.83874512 36.67947388 C-3.84173469 38.87339333 -3.84513675 41.06731225 -3.84892273 43.26123047 C-3.85778729 49.23839045 -3.86010186 55.21553614 -3.86073852 61.19270205 C-3.86168551 66.17316308 -3.86536137 71.15362074 -3.86891061 76.13408047 C-3.87659809 87.20714124 -3.87957839 98.28019634 -3.87890526 109.35325944 C-3.8788653 110.0182686 -3.87882535 110.68327776 -3.87878418 111.36843872 C-3.8787433 112.03425569 -3.87870242 112.70007266 -3.8786603 113.38606591 C-3.87825371 124.1805321 -3.88782537 134.97496344 -3.90192255 145.76941954 C-3.91626847 156.84132387 -3.92301035 167.9132138 -3.92232877 178.98512799 C-3.92207308 185.2059005 -3.92496303 191.42663359 -3.93550682 197.64739799 C-3.94514762 203.49547019 -3.94529477 209.34346493 -3.93799019 215.19153976 C-3.93693933 217.34346568 -3.93933665 219.49539631 -3.94535065 221.64731407 C-3.95300313 224.57405596 -3.9484709 227.50052583 -3.9407196 230.42726135 C-3.94586317 231.28843502 -3.95100673 232.14960869 -3.95630616 233.03687853 C-4.12919317 237.55685418 -4.12919317 237.55685418 -1.69348145 241.12698364 C0.70893517 241.43441268 0.70893517 241.43441268 3.5447998 241.38768005 C4.65532715 241.39476486 5.76585449 241.40184967 6.91003418 241.40914917 C8.74598145 241.40543304 8.74598145 241.40543304 10.61901855 241.40164185 C11.90356934 241.40675278 13.18812012 241.41186371 14.51159668 241.41712952 C18.04045441 241.43054724 21.56920522 241.4310952 25.0980835 241.42856622 C28.04063281 241.42749852 30.9831603 241.43237461 33.92570496 241.43717164 C40.86515933 241.44827611 47.80455958 241.44869876 54.74401855 241.44265747 C61.91159081 241.43661373 69.07896695 241.44893657 76.24650574 241.47022754 C82.39346065 241.48781791 88.54035299 241.49384903 94.68733215 241.4905898 C98.36171803 241.4887729 102.03596398 241.49145334 105.71032715 241.50530434 C109.80502143 241.52016168 113.89931394 241.51093516 117.99401855 241.4992981 C119.2179834 241.50694183 120.44194824 241.51458557 121.70300293 241.52246094 C122.81353027 241.51544662 123.92405762 241.50843231 125.0682373 241.50120544 C126.03720947 241.50137319 127.00618164 241.50154093 128.0045166 241.50171375 C128.76417725 241.37805282 129.52383789 241.25439188 130.30651855 241.12698364 C132.92283586 237.20250769 132.57804222 233.89034639 132.54702759 229.33824158 C132.54873644 228.42912968 132.55044529 227.52001778 132.55220592 226.58335704 C132.55551086 223.52465927 132.54448057 220.46617891 132.53356934 217.40750122 C132.53300544 215.21989446 132.53332136 213.03228732 132.53445435 210.84468079 C132.5350297 204.89460202 132.52324585 198.9446034 132.50930643 192.99454331 C132.49682947 186.78053074 132.49563097 180.56651646 132.49325562 174.35249329 C132.48773964 163.91899246 132.47523531 153.48551915 132.45739746 143.05203247 C132.43904258 132.30496366 132.42488416 121.55790285 132.41638184 110.81082153 C132.41559367 109.81733426 132.41559367 109.81733426 132.41478957 108.80377654 C132.41217952 105.48112467 132.4096566 102.15847275 132.40716577 98.83582079 C132.38624359 71.26618787 132.35105034 43.69658783 132.30651855 16.12698364 C129.73404384 14.84074629 127.90491157 15.00111119 125.02354431 15 C123.90315765 14.99718018 122.782771 14.99436035 121.62843323 14.99145508 C119.77610329 14.99449142 119.77610329 14.99449142 117.88635254 14.99758911 C116.59044189 14.99583679 115.29453125 14.99408447 113.95935059 14.99227905 C110.39958858 14.98771082 106.83985548 14.98949166 103.28009295 14.99265814 C99.5609598 14.99518434 95.84182917 14.99284352 92.12269592 14.99127197 C85.87740635 14.98945127 79.6321286 14.99185423 73.38684082 14.99661255 C66.15683148 15.00205736 58.92685032 15.00029053 51.69684166 14.99478614 C45.49810845 14.99025503 39.29938375 14.98960438 33.10064942 14.99222481 C29.39448685 14.99378729 25.68833755 14.99398209 21.98217583 14.99068832 C17.85386344 14.9872758 13.72560003 14.99199929 9.59729004 14.99758911 C8.36037918 14.99556488 7.12346832 14.99354065 5.84907532 14.99145508 C4.73150848 14.9942749 3.61394165 14.99709473 2.46250916 15 C1.48524085 15.00037703 0.50797255 15.00075405 -0.49890995 15.0011425 C-2.66973956 14.88141953 -2.66973956 14.88141953 -3.69348145 16.12698364 Z " fill="#6AD375" transform="translate(317.6934814453125,233.87301635742188)"/>
<path d="M0 0 C0.94708832 -0.0071553 1.89417664 -0.01431061 2.8699646 -0.02168274 C5.99062811 -0.03854726 9.10985052 -0.0191797 12.23046875 0.00219727 C14.40470498 0.00136836 16.57894115 -0.00109182 18.75317383 -0.00511169 C23.3060191 -0.00796817 27.85837202 0.0067174 32.41113281 0.03417969 C38.24210576 0.06826169 44.07219841 0.06224254 49.9032135 0.04351711 C54.39171666 0.03294009 58.88001558 0.04189144 63.36849976 0.05690193 C65.51825351 0.06207901 67.66802864 0.06160771 69.81777954 0.05535698 C72.82429747 0.04989646 75.8295624 0.07030755 78.8359375 0.09765625 C80.16399918 0.08786743 80.16399918 0.08786743 81.51889038 0.07788086 C86.92860943 0.16140274 90.24616166 0.8573011 94.41796875 4.63110352 C97.02048235 8.97735447 97.79583402 12.18857424 97.81237793 17.22789001 C97.82372772 18.53862991 97.83507751 19.84936981 97.84677124 21.1998291 C97.84412827 22.64038148 97.84115711 24.08093328 97.83789062 25.52148438 C97.84523497 27.04794433 97.85382227 28.57439874 97.86355591 30.10084534 C97.885741 34.23724111 97.88870415 38.3734375 97.8868084 42.5098846 C97.88668857 45.96663537 97.89525761 49.42334409 97.90358591 52.88008314 C97.92280874 61.03662052 97.92570771 69.19305555 97.91894531 77.34960938 C97.91230335 85.75672217 97.93517752 94.16339636 97.97225904 102.57042021 C98.00297035 109.79609418 98.01431459 117.02162714 98.01042223 124.24736506 C98.0083564 128.55965142 98.01380827 132.87159633 98.03831482 137.18382072 C98.06060363 141.23961183 98.05868699 145.29469027 98.0383873 149.35048485 C98.0349811 150.83594569 98.04004969 152.32145472 98.05437088 153.80685043 C98.16738508 166.40101071 98.16738508 166.40101071 95.2545166 170.88233948 C89.49799006 176.46071643 84.77660412 177.07540526 77.11132812 177.03515625 C76.19350052 177.0420195 75.27567291 177.04888275 74.33003235 177.05595398 C71.30710219 177.0742012 68.28469197 177.07038781 65.26171875 177.06469727 C63.15474275 177.06925966 61.04776825 177.0745654 58.9407959 177.08058167 C54.52931667 177.08950839 50.11801853 177.08709408 45.70654297 177.07714844 C40.05721639 177.06565221 34.40851427 177.08588282 28.75926971 177.11506557 C24.4097701 177.13342178 20.06042035 177.13313636 15.71089172 177.12742805 C13.62810896 177.12727481 11.54531606 177.13332187 9.46257019 177.14571953 C6.54951909 177.16061862 3.6376246 177.14996057 0.72460938 177.1328125 C-0.13271286 177.14248047 -0.9900351 177.15214844 -1.87333679 177.16210938 C-7.24238903 177.0960203 -10.40064279 176.30368688 -14.58203125 172.63110352 C-17.95203259 168.31314561 -19.08222463 165.52862675 -19.08323669 160.06555176 C-19.0979879 158.1098954 -19.0979879 158.1098954 -19.11303711 156.11473083 C-19.10366639 154.68203472 -19.09388713 153.24934122 -19.08374023 151.81665039 C-19.08752583 150.29842122 -19.09302786 148.78019551 -19.10011292 147.26197815 C-19.11405354 143.148278 -19.10290773 139.03499677 -19.0864017 134.92131996 C-19.07253133 130.61197217 -19.07901354 126.3026482 -19.08253479 121.99328613 C-19.08523534 114.75709295 -19.07177466 107.52106579 -19.04858398 100.28491211 C-19.02197519 91.92445108 -19.02022771 83.5642676 -19.03197235 75.20377874 C-19.04275969 67.15413209 -19.03655556 59.10458561 -19.02241707 51.0549469 C-19.01666556 47.63242722 -19.01673337 44.20998106 -19.02148247 40.78746033 C-19.02626245 36.75559101 -19.01610851 32.72402476 -18.99452782 28.69221306 C-18.98897365 27.21441101 -18.98848207 25.73657975 -18.99348068 24.25877571 C-18.99945741 22.2380622 -18.98506211 20.21731931 -18.9697113 18.19665527 C-18.96728141 17.06695564 -18.96485151 15.93725601 -18.96234798 14.77332306 C-18.35242513 9.73407197 -16.37912957 6.50423835 -12.9934082 2.79554749 C-8.97862348 -0.28084123 -4.88703907 -0.06453793 0 0 Z M-3.58203125 15.63110352 C-3.58203125 63.81110352 -3.58203125 111.99110352 -3.58203125 161.63110352 C24.79796875 161.63110352 53.17796875 161.63110352 82.41796875 161.63110352 C82.41796875 113.45110352 82.41796875 65.27110352 82.41796875 15.63110352 C54.03796875 15.63110352 25.65796875 15.63110352 -3.58203125 15.63110352 Z " fill="#6AD374" transform="translate(342.58203125,260.368896484375)"/>
<path d="M0 0 C8.91 0 17.82 0 27 0 C27 8.91 27 17.82 27 27 C18.09 27 9.18 27 0 27 C0 18.09 0 9.18 0 0 Z " fill="#FBFEFB" transform="translate(186,278)"/>
<path d="M0 0 C8.91 0 17.82 0 27 0 C27 8.91 27 17.82 27 27 C18.09 27 9.18 27 0 27 C0 18.09 0 9.18 0 0 Z " fill="#FBFEFB" transform="translate(148,278)"/>
<path d="M0 0 C8.91 0 17.82 0 27 0 C27 8.91 27 17.82 27 27 C18.09 27 9.18 27 0 27 C0 18.09 0 9.18 0 0 Z " fill="#FBFDFB" transform="translate(186,240)"/>
<path d="M0 0 C8.91 0 17.82 0 27 0 C27 8.91 27 17.82 27 27 C18.09 27 9.18 27 0 27 C0 18.09 0 9.18 0 0 Z " fill="#FBFDFB" transform="translate(148,240)"/>
<path d="M0 0 C0 0.99 0 1.98 0 3 C-0.66 3.66 -1.32 4.32 -2 5 C-2.6425235 7.06874034 -2.6425235 7.06874034 -3 9 C-2.34 9.33 -1.68 9.66 -1 10 C-1.33 83.92 -1.66 157.84 -2 234 C-2.66 234 -3.32 234 -4 234 C-3.67 234.53625 -3.34 235.0725 -3 235.625 C-1.77300796 238.5391061 -1.85766714 240.86867708 -2 244 C-2.66 244 -3.32 244 -4 244 C-6.41871743 239.27420932 -6.28314522 234.92984659 -6.26069641 229.75210571 C-6.26452196 228.81763906 -6.26834751 227.8831724 -6.27228898 226.92038858 C-6.28261199 223.78752614 -6.27862811 220.6548472 -6.2746582 217.52197266 C-6.27900507 215.2764621 -6.28418814 213.03095303 -6.29014587 210.78544617 C-6.30355014 204.68421047 -6.30411292 198.58303667 -6.30158257 192.48178911 C-6.30051378 187.38975537 -6.30539392 182.29773419 -6.310188 177.20570314 C-6.32192312 164.50605224 -6.32105529 151.80644618 -6.31463119 139.10679571 C-6.309463 128.08314638 -6.32071498 117.05958544 -6.33972941 106.0359536 C-6.359112 94.71189629 -6.36707166 83.38789298 -6.36360615 72.06381452 C-6.36179209 65.70822844 -6.36444177 59.35272331 -6.37832069 52.99715042 C-6.39088424 47.02011283 -6.38896874 41.04325226 -6.37590981 35.06621742 C-6.37354123 32.87284981 -6.37628872 30.6794698 -6.38453293 28.48611641 C-6.39497815 25.49115883 -6.38691726 22.49679767 -6.3742218 19.50186157 C-6.38528323 18.20102157 -6.38528323 18.20102157 -6.39656812 16.87390196 C-6.34230446 10.78568982 -5.44892771 5.81173181 -1.3125 1.0625 C-0.6628125 0.5365625 -0.6628125 0.5365625 0 0 Z " fill="#6BD374" transform="translate(305,238)"/>
<path d="M0 0 C3.5677811 2.35149209 5.84221079 4.99692157 7.75 8.8125 C8.55980094 15.33073377 7.67286213 19.54760608 3.75 24.8125 C0.30202327 27.93973471 -2.24348167 29.05847457 -6.8125 29.1875 C-12.11421232 28.90332112 -15.00560601 27.94376726 -19 24.3125 C-22.14465297 20.24236372 -22.49709659 15.83414042 -22.25 10.8125 C-21.08768539 6.0857539 -19.46939124 3.62828162 -15.5625 0.875 C-10.16349533 -2.12664847 -5.86039312 -2.14129749 0 0 Z " fill="#6CD376" transform="translate(389.25,443.1875)"/>
<path d="M0 0 C0.33 0 0.66 0 1 0 C1.00331015 1.16289991 1.00662029 2.32579983 1.01003075 3.52393913 C1.08898656 31.10635469 1.17818282 58.68872157 1.28005161 86.27106243 C1.29257103 89.66329264 1.30500372 93.05552317 1.31738281 96.44775391 C1.31984881 97.12310822 1.3223148 97.79846254 1.32485552 98.49428214 C1.36461853 109.44074677 1.39735016 120.38722177 1.42749982 131.33371662 C1.45857405 142.55930008 1.49731516 153.78483923 1.54279006 165.01037514 C1.56809896 171.31833525 1.58986715 177.62626392 1.60334396 183.93426132 C1.6161246 189.86524923 1.63813536 195.79612954 1.66738319 201.72705841 C1.67649038 203.90960913 1.68215646 206.09217719 1.68421364 208.27474594 C1.6875141 211.24317348 1.70293082 214.21129182 1.7215271 217.17965698 C1.71959237 218.05318561 1.71765763 218.92671425 1.71566427 219.82671344 C1.55356144 224.39043358 1.55356144 224.39043358 4 228 C4.125 231.125 4.125 231.125 4 234 C3.34 234 2.68 234 2 234 C-0.43201865 229.26157684 -0.27502397 224.89770857 -0.24050903 219.70500183 C-0.24221788 218.76559622 -0.24392673 217.8261906 -0.24568737 216.85831815 C-0.24898282 213.70909751 -0.23797754 210.56008971 -0.22705078 207.41088867 C-0.22648668 205.15402227 -0.22680321 202.8971555 -0.22793579 200.64028931 C-0.22851034 194.51058352 -0.21673935 188.38095578 -0.20278788 182.25126815 C-0.19029767 175.84641524 -0.18911137 169.4415606 -0.18673706 163.03669739 C-0.18122423 152.28559765 -0.16872607 141.53453208 -0.15087891 130.78344727 C-0.13251663 119.71053206 -0.11836183 108.63762463 -0.10986328 97.56469727 C-0.10933783 96.8819889 -0.10881239 96.19928053 -0.10827102 95.49588402 C-0.10566091 92.07088493 -0.1031335 88.64588578 -0.10064721 85.22088659 C-0.0799189 56.81390466 -0.04454819 28.40695387 0 0 Z " fill="#86D68F" transform="translate(299,248)"/>
<path d="M0 0 C0.33 0 0.66 0 1 0 C1 48.18 1 96.36 1 146 C29.38 146 57.76 146 87 146 C87 146.33 87 146.66 87 147 C57.63 147 28.26 147 -2 147 C-2 146.01 -2 145.02 -2 144 C-1.34 144 -0.68 144 0 144 C0 96.48 0 48.96 0 0 Z " fill="#73D07D" transform="translate(338,276)"/>
<path d="M0 0 C0.33 0 0.66 0 1 0 C1 72.6 1 145.2 1 220 C1.66 220 2.32 220 3 220 C2.67 221.98 2.34 223.96 2 226 C-0.70477284 222.03693298 -0.27194979 217.68993143 -0.24050903 213.09100342 C-0.24221788 212.18103709 -0.24392673 211.27107077 -0.24568737 210.33352971 C-0.24898717 207.27793763 -0.23797041 204.22256411 -0.22705078 201.16699219 C-0.22648677 198.97923793 -0.22680302 196.79148329 -0.22793579 194.60372925 C-0.22851071 188.65784173 -0.21673382 182.71203455 -0.20278788 176.76616573 C-0.19030375 170.55482831 -0.18911185 164.34348914 -0.18673706 158.13214111 C-0.18122279 147.70461662 -0.16872179 137.27711969 -0.15087891 126.84960938 C-0.13252002 116.1093765 -0.11836356 105.36915165 -0.10986328 94.62890625 C-0.10933783 93.96684413 -0.10881239 93.304782 -0.10827102 92.62265739 C-0.10566094 89.30127616 -0.10313803 85.97989487 -0.10064721 82.65851355 C-0.07972983 55.10565513 -0.04454066 27.55282964 0 0 Z " fill="#62D46C" transform="translate(300,252)"/>
<path d="M0 0 C0.33 0.66 0.66 1.32 1 2 C-0.3125 4.625 -0.3125 4.625 -2 7 C-2.66 7 -3.32 7 -4 7 C-4 7.66 -4 8.32 -4 9 C14.48 9 32.96 9 52 9 C52 9.33 52 9.66 52 10 C31.87 10 11.74 10 -9 10 C-3 3 -3 3 0 0 Z " fill="#73CE7F" transform="translate(47,213)"/>
<path d="M0 0 C0 14.19 0 28.38 0 43 C-0.33 43 -0.66 43 -1 43 C-1.01401855 41.43318481 -1.01401855 41.43318481 -1.02832031 39.8347168 C-1.06818874 35.959771 -1.13393741 32.08562186 -1.20751953 28.21118164 C-1.23574768 26.5342024 -1.2569531 24.85708965 -1.27099609 23.17993164 C-1.29240125 20.76899782 -1.33903426 18.35967216 -1.390625 15.94921875 C-1.39185364 15.19912033 -1.39308228 14.44902191 -1.39434814 13.67619324 C-1.50213254 9.35170447 -1.50213254 9.35170447 -4.03808594 6.00317383 C-5.0092334 5.50660278 -5.0092334 5.50660278 -6 5 C-1.125 0 -1.125 0 0 0 Z " fill="#70D17D" transform="translate(245,16)"/>
<path d="M0 0 C0.33 0.66 0.66 1.32 1 2 C2.65 1.67 4.3 1.34 6 1 C5.34 2.98 4.68 4.96 4 7 C-5.76374745 7.38289206 -5.76374745 7.38289206 -10 5 C-10.33 4.34 -10.66 3.68 -11 3 C-8.36 3.33 -5.72 3.66 -3 4 C-2.67 3.01 -2.34 2.02 -2 1 C-1.34 0.67 -0.68 0.34 0 0 Z " fill="#74D67E" transform="translate(383,465)"/>
<path d="M0 0 C0.33 0.66 0.66 1.32 1 2 C-0.3125 4.625 -0.3125 4.625 -2 7 C-2.66 7 -3.32 7 -4 7 C-4 7.66 -4 8.32 -4 9 C-2.68 9.33 -1.36 9.66 0 10 C-2.97 10 -5.94 10 -9 10 C-2.97321429 2.90178571 -2.97321429 2.90178571 0 0 Z " fill="#82D78F" transform="translate(47,213)"/>
<path d="M0 0 C0 3.13751221 -0.35179805 4.39757586 -2 7 C-2.99 7.33 -3.98 7.66 -5 8 C-5 9.32 -5 10.64 -5 12 C-6.65 11.67 -8.3 11.34 -10 11 C-6.79239749 7.19364503 -3.59253891 3.45436433 0 0 Z " fill="#81D78C" transform="translate(92,168)"/>
<path d="M0 0 C0 4.70738527 -2.81825891 7.68210332 -6 11 C-9.375 12.5 -9.375 12.5 -12 13 C-8.19524578 8.43969176 -4.25030379 4.14910608 0 0 Z " fill="#7DD786" transform="translate(204,56)"/>
<path d="M0 0 C0.68707555 2.49064888 1 4.37886292 1 7 C0.34 7 -0.32 7 -1 7 C-1 7.66 -1 8.32 -1 9 C-3.97 8.505 -3.97 8.505 -7 8 C-6.02133662 6.85373678 -5.04205413 5.70800212 -4.0625 4.5625 C-3.51722656 3.92441406 -2.97195312 3.28632813 -2.41015625 2.62890625 C-1.63204305 1.73008851 -0.84063472 0.84063472 0 0 Z " fill="#7DD887" transform="translate(55,205)"/>
<path d="M0 0 C0.68707555 2.49064888 1 4.37886292 1 7 C0.34 7 -0.32 7 -1 7 C-1 7.66 -1 8.32 -1 9 C-3.97 8.505 -3.97 8.505 -7 8 C-6.02133662 6.85373678 -5.04205413 5.70800212 -4.0625 4.5625 C-3.51722656 3.92441406 -2.97195312 3.28632813 -2.41015625 2.62890625 C-1.63204305 1.73008851 -0.84063472 0.84063472 0 0 Z " fill="#7DD887" transform="translate(63,197)"/>
<path d="M0 0 C3.58349082 1.19449694 4.44376611 2.69945918 6.21484375 5.9453125 C7.52475096 9.37322889 7.25495886 12.36683622 7 16 C6.67 16 6.34 16 6 16 C5.57682292 13.98177083 5.15364583 11.96354167 4.73046875 9.9453125 C4.07691162 7.62953451 4.07691162 7.62953451 1 6 C0.3125 2.875 0.3125 2.875 0 0 Z " fill="#94DC9B" transform="translate(344,93)"/>
<path d="M0 0 C2 2 2 2 2.1953125 4.3828125 C2.17210937 5.28773437 2.14890625 6.19265625 2.125 7.125 C2.10695313 8.03507812 2.08890625 8.94515625 2.0703125 9.8828125 C2.04710937 10.58148438 2.02390625 11.28015625 2 12 C1.34 12 0.68 12 0 12 C-0.33 12.66 -0.66 13.32 -1 14 C-0.96744792 12.01432292 -0.93489583 10.02864583 -0.90234375 8.04296875 C-0.91736783 5.79694539 -0.91736783 5.79694539 -2 3 C-1.34 3 -0.68 3 0 3 C0 2.01 0 1.02 0 0 Z " fill="#84D88D" transform="translate(290,60)"/>
<path d="M0 0 C0.33 1.32 0.66 2.64 1 4 C-1.64 5.98 -4.28 7.96 -7 10 C-7.66 9.67 -8.32 9.34 -9 9 C-6.03 6.03 -3.06 3.06 0 0 Z " fill="#7BD484" transform="translate(222,38)"/>
<path d="M0 0 C2 2 2 2 2.265625 4.3125 C2.25789063 5.6428125 2.25789063 5.6428125 2.25 7 C2.25515625 7.886875 2.2603125 8.77375 2.265625 9.6875 C2 12 2 12 0 14 C-0.19456705 12.04235617 -0.38044247 10.08384679 -0.5625 8.125 C-0.66691406 7.03445312 -0.77132813 5.94390625 -0.87890625 4.8203125 C-1 2 -1 2 0 0 Z " fill="#7ED687" transform="translate(438,206)"/>
<path d="M0 0 C2.125 0.9375 2.125 0.9375 4 2 C4 3.32 4 4.64 4 6 C1 6 1 6 -2 4 C-2 3.01 -2 2.02 -2 1 C-1.34 0.67 -0.68 0.34 0 0 Z " fill="#7AD882" transform="translate(378,177)"/>
<path d="M0 0 C5.67276511 -0.29341888 8.99067246 -0.00559652 14 3 C13.34 3.66 12.68 4.32 12 5 C11.01 5 10.02 5 9 5 C9 4.01 9 3.02 9 2 C6.03 1.67 3.06 1.34 0 1 C0 0.67 0 0.34 0 0 Z " fill="#82D78F" transform="translate(378,442)"/>
<path d="M0 0 C0.6875 1.8125 0.6875 1.8125 1 4 C-0.64504011 6.46756016 -1.80299352 6.94960299 -4.6875 7.6875 C-5.8321875 7.8421875 -5.8321875 7.8421875 -7 8 C-6.02133662 6.85373678 -5.04205413 5.70800212 -4.0625 4.5625 C-3.51722656 3.92441406 -2.97195312 3.28632812 -2.41015625 2.62890625 C-1.63204305 1.73008851 -0.84063472 0.84063472 0 0 Z " fill="#7AD685" transform="translate(212,48)"/>
<path d="M0 0 C0.66 0.33 1.32 0.66 2 1 C1.3125 3.4375 1.3125 3.4375 0 6 C-2.625 6.8125 -2.625 6.8125 -5 7 C-3.70700306 4.11562221 -2.34058637 2.12780579 0 0 Z " fill="#7CD589" transform="translate(331,262)"/>
<path d="M0 0 C0.33 0.99 0.66 1.98 1 3 C-1.31 4.98 -3.62 6.96 -6 9 C-6.66 8.67 -7.32 8.34 -8 8 C-5.36 5.36 -2.72 2.72 0 0 Z " fill="#80D387" transform="translate(238,22)"/>
<path d="M0 0 C5.66153846 2.46153846 5.66153846 2.46153846 7.375 5.1875 C7.58125 5.785625 7.7875 6.38375 8 7 C5.5625 6.1875 5.5625 6.1875 3 5 C2.67 4.01 2.34 3.02 2 2 C1.34 2 0.68 2 0 2 C0 1.34 0 0.68 0 0 Z " fill="#82DA8D" transform="translate(270,360)"/>
<path d="M0 0 C0 3 0 3 -1 6 C-4.0625 7.1875 -4.0625 7.1875 -7 8 C-6.02133662 6.85373678 -5.04205413 5.70800212 -4.0625 4.5625 C-3.51722656 3.92441406 -2.97195312 3.28632813 -2.41015625 2.62890625 C-1.63204305 1.73008851 -0.84063472 0.84063472 0 0 Z " fill="#8AD998" transform="translate(76,184)"/>
<path d="M0 0 C1.65 0 3.3 0 5 0 C5 0.66 5 1.32 5 2 C5.66 2.33 6.32 2.66 7 3 C5.02 3.99 5.02 3.99 3 5 C2.87625 4.360625 2.7525 3.72125 2.625 3.0625 C2.315625 2.0415625 2.315625 2.0415625 2 1 C1.34 0.67 0.68 0.34 0 0 Z " fill="#75D37C" transform="translate(339,114)"/>
<path d="M0 0 C0.33 0 0.66 0 1 0 C1.36923077 4.55384615 1.36923077 4.55384615 -0.5 6.8125 C-0.995 7.204375 -1.49 7.59625 -2 8 C-2.66 7.67 -3.32 7.34 -4 7 C-4 6.34 -4 5.68 -4 5 C-3.34 5 -2.68 5 -2 5 C-1.34 3.35 -0.68 1.7 0 0 Z " fill="#DAF5DE" transform="translate(290,72)"/>
<path d="M0 0 C2.31 0.33 4.62 0.66 7 1 C7 1.99 7 2.98 7 4 C4.36 3.34 1.72 2.68 -1 2 C-0.67 1.34 -0.34 0.68 0 0 Z " fill="#63D670" transform="translate(380,443)"/>
</svg>
